BenchTwelve-Regular-FF.ufo
<glyph name="exclam" format="1">
  <advance width="550"/>
  <unicode hex="0021"/>
  <outline>
    <contour>
      <point x="215" y="0" type="curve" smooth="yes"/>
      <point x="332" y="0" type="line" smooth="yes"/>
      <point x="375" y="0"/>
      <point x="399" y="24"/>
      <point x="399" y="67" type="curve" smooth="yes"/>
      <point x="399" y="181" type="line" smooth="yes"/>
      <point x="399" y="224"/>
      <point x="375" y="248"/>
      <point x="332" y="248" type="curve" smooth="yes"/>
      <point x="215" y="248" type="line" smooth="yes"/>
      <point x="172" y="248"/>
      <point x="148" y="224"/>
      <point x="148" y="181" type="curve" smooth="yes"/>
      <point x="148" y="67" type="line" smooth="yes"/>
      <point x="148" y="24"/>
      <point x="172" y="0"/>
    </contour>
    <contour>
      <point x="277" y="432" type="curve" smooth="yes"/>
      <point x="282" y="432" type="line" smooth="yes"/>
      <point x="325" y="432"/>
      <point x="326" y="456"/>
      <point x="329" y="499" type="curve" smooth="yes"/>
      <point x="390" y="1343" type="line" smooth="yes"/>
      <point x="393" y="1386"/>
      <point x="366" y="1438"/>
      <point x="323" y="1438" type="curve" smooth="yes"/>
      <point x="229" y="1438" type="line" smooth="yes"/>
      <point x="186" y="1438"/>
      <point x="159" y="1414"/>
      <point x="162" y="1371" type="curve" smooth="yes"/>
      <point x="230" y="499" type="line" smooth="yes"/>
      <point x="233" y="456"/>
      <point x="234" y="432"/>
    </contour>
  </outline>
</glyph>
<glyph name="quotedbl" format="1">
  <advance width="840"/>
  <unicode hex="0022"/>
  <outline>
    <contour>
      <point x="247" y="772" type="curve" smooth="yes"/>
      <point x="252" y="772" type="line" smooth="yes"/>
      <point x="295" y="772"/>
      <point x="294" y="796"/>
      <point x="299" y="839" type="curve" smooth="yes"/>
      <point x="360" y="1350" type="line" smooth="yes"/>
      <point x="365" y="1393"/>
      <point x="336" y="1438"/>
      <point x="293" y="1438" type="curve" smooth="yes"/>
      <point x="199" y="1438" type="line" smooth="yes"/>
      <point x="156" y="1438"/>
      <point x="126" y="1394"/>
      <point x="132" y="1351" type="curve" smooth="yes"/>
      <point x="200" y="839" type="line" smooth="yes"/>
      <point x="206" y="796"/>
      <point x="204" y="772"/>
    </contour>
    <contour>
      <point x="591" y="772" type="curve" smooth="yes"/>
      <point x="596" y="772" type="line" smooth="yes"/>
      <point x="639" y="772"/>
      <point x="638" y="796"/>
      <point x="643" y="839" type="curve" smooth="yes"/>
      <point x="704" y="1350" type="line" smooth="yes"/>
      <point x="709" y="1393"/>
      <point x="680" y="1438"/>
      <point x="637" y="1438" type="curve" smooth="yes"/>
      <point x="543" y="1438" type="line" smooth="yes"/>
      <point x="500" y="1438"/>
      <point x="470" y="1394"/>
      <point x="476" y="1351" type="curve" smooth="yes"/>
      <point x="544" y="839" type="line" smooth="yes"/>
      <point x="550" y="796"/>
      <point x="548" y="772"/>
    </contour>
  </outline>
</glyph>
<glyph name="numbersign" format="1">
  <advance width="1712"/>
  <unicode hex="0023"/>
  <outline>
    <contour>
      <point x="240" y="-205" type="curve" smooth="yes"/>
      <point x="345" y="-205" type="line" smooth="yes"/>
      <point x="367" y="-205"/>
      <point x="387" y="-191"/>
      <point x="395" y="-170" type="curve"/>
      <point x="532" y="417" type="line"/>
      <point x="1008" y="417" type="line"/>
      <point x="871" y="-170" type="line"/>
      <point x="865" y="-187"/>
      <point x="877" y="-205"/>
      <point x="895" y="-205" type="curve" smooth="yes"/>
      <point x="1000" y="-205" type="line" smooth="yes"/>
      <point x="1022" y="-205"/>
      <point x="1042" y="-191"/>
      <point x="1050" y="-170" type="curve"/>
      <point x="1187" y="417" type="line"/>
      <point x="1436" y="417" type="line" smooth="yes"/>
      <point x="1479" y="417"/>
      <point x="1503" y="431"/>
      <point x="1503" y="474" type="curve" smooth="yes"/>
      <point x="1503" y="530" type="line" smooth="yes"/>
      <point x="1503" y="573"/>
      <point x="1479" y="587"/>
      <point x="1436" y="587" type="curve" smooth="yes"/>
      <point x="1227" y="587" type="line"/>
      <point x="1285" y="834" type="line"/>
      <point x="1511" y="834" type="line" smooth="yes"/>
      <point x="1554" y="834"/>
      <point x="1578" y="848"/>
      <point x="1578" y="891" type="curve" smooth="yes"/>
      <point x="1578" y="949" type="line" smooth="yes"/>
      <point x="1578" y="992"/>
      <point x="1554" y="1006"/>
      <point x="1511" y="1006" type="curve" smooth="yes"/>
      <point x="1325" y="1006" type="line"/>
      <point x="1467" y="1612" type="line"/>
      <point x="1473" y="1629"/>
      <point x="1461" y="1647"/>
      <point x="1443" y="1647" type="curve" smooth="yes"/>
      <point x="1338" y="1647" type="line" smooth="yes"/>
      <point x="1316" y="1647"/>
      <point x="1296" y="1633"/>
      <point x="1288" y="1612" type="curve"/>
      <point x="1146" y="1006" type="line"/>
      <point x="670" y="1006" type="line"/>
      <point x="812" y="1612" type="line"/>
      <point x="818" y="1629"/>
      <point x="806" y="1647"/>
      <point x="788" y="1647" type="curve" smooth="yes"/>
      <point x="683" y="1647" type="line" smooth="yes"/>
      <point x="661" y="1647"/>
      <point x="641" y="1633"/>
      <point x="633" y="1612" type="curve"/>
      <point x="491" y="1006" type="line"/>
      <point x="276" y="1006" type="line" smooth="yes"/>
      <point x="233" y="1006"/>
      <point x="209" y="992"/>
      <point x="209" y="949" type="curve" smooth="yes"/>
      <point x="209" y="891" type="line" smooth="yes"/>
      <point x="209" y="848"/>
      <point x="233" y="834"/>
      <point x="276" y="834" type="curve" smooth="yes"/>
      <point x="451" y="834" type="line"/>
      <point x="393" y="587" type="line"/>
      <point x="201" y="587" type="line" smooth="yes"/>
      <point x="158" y="587"/>
      <point x="134" y="573"/>
      <point x="134" y="530" type="curve" smooth="yes"/>
      <point x="134" y="474" type="line" smooth="yes"/>
      <point x="134" y="431"/>
      <point x="158" y="417"/>
      <point x="201" y="417" type="curve" smooth="yes"/>
      <point x="353" y="417" type="line"/>
      <point x="216" y="-170" type="line"/>
      <point x="210" y="-187"/>
      <point x="222" y="-205"/>
    </contour>
    <contour>
      <point x="572" y="587" type="line"/>
      <point x="630" y="834" type="line"/>
      <point x="1106" y="834" type="line"/>
      <point x="1048" y="587" type="line"/>
    </contour>
  </outline>
</glyph>
<glyph name="percent" format="1">
  <advance width="2644"/>
  <unicode hex="0025"/>
  <outline>
    <contour>
      <point x="950" y="-82" type="curve" smooth="yes"/>
      <point x="982" y="-82" type="line" smooth="yes"/>
      <point x="1028" y="-82"/>
      <point x="1071" y="-54"/>
      <point x="1090" y="-12" type="curve" smooth="yes"/>
      <point x="1744" y="1466" type="line" smooth="yes"/>
      <point x="1759" y="1499"/>
      <point x="1735" y="1536"/>
      <point x="1698" y="1536" type="curve" smooth="yes"/>
      <point x="1667" y="1536" type="line" smooth="yes"/>
      <point x="1621" y="1536"/>
      <point x="1577" y="1508"/>
      <point x="1559" y="1466" type="curve" smooth="yes"/>
      <point x="904" y="-12" type="line" smooth="yes"/>
      <point x="889" y="-45"/>
      <point x="913" y="-82"/>
    </contour>
    <contour>
      <point x="576" y="761" type="curve" smooth="yes"/>
      <point x="410" y="761"/>
      <point x="308" y="875"/>
      <point x="308" y="1059" type="curve" smooth="yes"/>
      <point x="308" y="1247"/>
      <point x="405" y="1357"/>
      <point x="576" y="1357" type="curve" smooth="yes"/>
      <point x="756" y="1357"/>
      <point x="844" y="1247"/>
      <point x="844" y="1059" type="curve" smooth="yes"/>
      <point x="844" y="875"/>
      <point x="751" y="761"/>
    </contour>
    <contour>
      <point x="576" y="621" type="curve" smooth="yes"/>
      <point x="873" y="621"/>
      <point x="1024" y="818"/>
      <point x="1024" y="1056" type="curve" smooth="yes"/>
      <point x="1024" y="1292"/>
      <point x="877" y="1497"/>
      <point x="576" y="1497" type="curve" smooth="yes"/>
      <point x="275" y="1497"/>
      <point x="127" y="1292"/>
      <point x="127" y="1056" type="curve" smooth="yes"/>
      <point x="127" y="818"/>
      <point x="279" y="621"/>
    </contour>
    <contour>
      <point x="2067" y="141" type="curve" smooth="yes"/>
      <point x="1901" y="141"/>
      <point x="1799" y="255"/>
      <point x="1799" y="439" type="curve" smooth="yes"/>
      <point x="1799" y="627"/>
      <point x="1896" y="737"/>
      <point x="2067" y="737" type="curve" smooth="yes"/>
      <point x="2247" y="737"/>
      <point x="2335" y="627"/>
      <point x="2335" y="439" type="curve" smooth="yes"/>
      <point x="2335" y="255"/>
      <point x="2242" y="141"/>
    </contour>
    <contour>
      <point x="2067" y="1" type="curve" smooth="yes"/>
      <point x="2364" y="1"/>
      <point x="2515" y="198"/>
      <point x="2515" y="436" type="curve" smooth="yes"/>
      <point x="2515" y="672"/>
      <point x="2368" y="877"/>
      <point x="2067" y="877" type="curve" smooth="yes"/>
      <point x="1766" y="877"/>
      <point x="1618" y="672"/>
      <point x="1618" y="436" type="curve" smooth="yes"/>
      <point x="1618" y="198"/>
      <point x="1770" y="1"/>
    </contour>
  </outline>
</glyph>
<glyph name="parenright" format="1">
  <advance width="845"/>
  <unicode hex="0029"/>
  <outline>
    <contour>
      <point x="190" y="-143" type="curve" smooth="yes"/>
      <point x="587" y="-63"/>
      <point x="703" y="297"/>
      <point x="703" y="698" type="curve" smooth="yes"/>
      <point x="703" y="1098"/>
      <point x="587" y="1459"/>
      <point x="190" y="1540" type="curve" smooth="yes"/>
      <point x="151" y="1548"/>
      <point x="113" y="1508"/>
      <point x="113" y="1470" type="curve" smooth="yes"/>
      <point x="113" y="1452" type="line" smooth="yes"/>
      <point x="113" y="1383"/>
      <point x="156" y="1382"/>
      <point x="218" y="1351" type="curve" smooth="yes"/>
      <point x="350" y="1285"/>
      <point x="477" y="1161"/>
      <point x="477" y="698" type="curve" smooth="yes"/>
      <point x="477" y="235"/>
      <point x="351" y="113"/>
      <point x="218" y="47" type="curve" smooth="yes"/>
      <point x="156" y="16"/>
      <point x="113" y="16"/>
      <point x="113" y="-53" type="curve" smooth="yes"/>
      <point x="113" y="-73" type="line" smooth="yes"/>
      <point x="113" y="-111"/>
      <point x="151" y="-151"/>
    </contour>
  </outline>
</glyph>
<glyph name="asterisk" format="1">
  <advance width="1290"/>
  <unicode hex="002A"/>
  <outline>
    <contour>
      <point x="389" y="295" type="curve" smooth="yes"/>
      <point x="424" y="295"/>
      <point x="455" y="316"/>
      <point x="470" y="346" type="curve" smooth="yes"/>
      <point x="644" y="695" type="line"/>
      <point x="817" y="346" type="line" smooth="yes"/>
      <point x="832" y="316"/>
      <point x="864" y="295"/>
      <point x="898" y="295" type="curve" smooth="yes"/>
      <point x="948" y="295"/>
      <point x="995" y="339"/>
      <point x="995" y="389" type="curve" smooth="yes"/>
      <point x="995" y="467"/>
      <point x="763" y="685"/>
      <point x="713" y="741" type="curve"/>
      <point x="1093" y="824" type="line" smooth="yes"/>
      <point x="1134" y="833"/>
      <point x="1166" y="869"/>
      <point x="1166" y="911" type="curve" smooth="yes"/>
      <point x="1166" y="961"/>
      <point x="1127" y="1009"/>
      <point x="1075" y="1009" type="curve" smooth="yes"/>
      <point x="1016" y="1009"/>
      <point x="749" y="853"/>
      <point x="685" y="820" type="curve"/>
      <point x="701" y="946"/>
      <point x="735" y="1095"/>
      <point x="735" y="1221" type="curve" smooth="yes"/>
      <point x="735" y="1271"/>
      <point x="694" y="1309"/>
      <point x="644" y="1309" type="curve" smooth="yes"/>
      <point x="597" y="1309"/>
      <point x="550" y="1276"/>
      <point x="550" y="1226" type="curve" smooth="yes"/>
      <point x="550" y="1098"/>
      <point x="585" y="948"/>
      <point x="602" y="820" type="curve"/>
      <point x="538" y="853"/>
      <point x="271" y="1009"/>
      <point x="212" y="1009" type="curve" smooth="yes"/>
      <point x="160" y="1009"/>
      <point x="121" y="961"/>
      <point x="121" y="911" type="curve" smooth="yes"/>
      <point x="121" y="869"/>
      <point x="153" y="833"/>
      <point x="194" y="824" type="curve" smooth="yes"/>
      <point x="574" y="741" type="line"/>
      <point x="524" y="685"/>
      <point x="292" y="467"/>
      <point x="292" y="389" type="curve" smooth="yes"/>
      <point x="292" y="339"/>
      <point x="339" y="295"/>
    </contour>
  </outline>
</glyph>
<glyph name="hyphen" format="1">
  <advance width="834"/>
  <unicode hex="002D"/>
  <outline>
    <contour>
      <point x="180" y="487" type="curve" smooth="yes"/>
      <point x="656" y="487" type="line" smooth="yes"/>
      <point x="699" y="487"/>
      <point x="712" y="501"/>
      <point x="712" y="544" type="curve" smooth="yes"/>
      <point x="712" y="596" type="line" smooth="yes"/>
      <point x="712" y="639"/>
      <point x="699" y="653"/>
      <point x="656" y="653" type="curve" smooth="yes"/>
      <point x="180" y="653" type="line" smooth="yes"/>
      <point x="137" y="653"/>
      <point x="121" y="639"/>
      <point x="121" y="596" type="curve" smooth="yes"/>
      <point x="121" y="544" type="line" smooth="yes"/>
      <point x="121" y="501"/>
      <point x="137" y="487"/>
    </contour>
  </outline>
</glyph>
<glyph name="period" format="1">
  <advance width="545"/>
  <unicode hex="002E"/>
  <outline>
    <contour>
      <point x="204" y="0" type="curve" smooth="yes"/>
      <point x="341" y="0" type="line" smooth="yes"/>
      <point x="384" y="0"/>
      <point x="418" y="34"/>
      <point x="418" y="77" type="curve" smooth="yes"/>
      <point x="418" y="221" type="line" smooth="yes"/>
      <point x="418" y="264"/>
      <point x="384" y="298"/>
      <point x="341" y="298" type="curve" smooth="yes"/>
      <point x="204" y="298" type="line" smooth="yes"/>
      <point x="161" y="298"/>
      <point x="127" y="264"/>
      <point x="127" y="221" type="curve" smooth="yes"/>
      <point x="127" y="77" type="line" smooth="yes"/>
      <point x="127" y="34"/>
      <point x="161" y="0"/>
    </contour>
  </outline>
</glyph>
<glyph name="slash" format="1">
  <advance width="1088"/>
  <unicode hex="002F"/>
  <outline>
    <contour>
      <point x="113" y="-205" type="curve" smooth="yes"/>
      <point x="276" y="-205" type="line" smooth="yes"/>
      <point x="298" y="-205"/>
      <point x="318" y="-191"/>
      <point x="326" y="-170" type="curve" smooth="yes"/>
      <point x="1013" y="1612" type="line" smooth="yes"/>
      <point x="1019" y="1629"/>
      <point x="1007" y="1647"/>
      <point x="989" y="1647" type="curve" smooth="yes"/>
      <point x="826" y="1647" type="line" smooth="yes"/>
      <point x="804" y="1647"/>
      <point x="784" y="1633"/>
      <point x="776" y="1612" type="curve" smooth="yes"/>
      <point x="89" y="-170" type="line" smooth="yes"/>
      <point x="83" y="-187"/>
      <point x="95" y="-205"/>
    </contour>
  </outline>
</glyph>
<glyph name="two" format="1">
  <advance width="1992"/>
  <unicode hex="0032"/>
  <outline>
    <contour>
      <point x="223" y="0" type="curve" smooth="yes"/>
      <point x="1758" y="0" type="line" smooth="yes"/>
      <point x="1796" y="0"/>
      <point x="1810" y="10"/>
      <point x="1810" y="52" type="curve" smooth="yes"/>
      <point x="1810" y="103" type="line" smooth="yes"/>
      <point x="1810" y="149"/>
      <point x="1792" y="167"/>
      <point x="1766" y="167" type="curve" smooth="yes"/>
      <point x="482" y="167" type="line" smooth="yes"/>
      <point x="445" y="167"/>
      <point x="411" y="188"/>
      <point x="411" y="222" type="curve" smooth="yes"/>
      <point x="411" y="227"/>
      <point x="412" y="233"/>
      <point x="414" y="239" type="curve" smooth="yes"/>
      <point x="586" y="826"/>
      <point x="1851" y="273"/>
      <point x="1851" y="991" type="curve" smooth="yes"/>
      <point x="1851" y="1359"/>
      <point x="1480" y="1478"/>
      <point x="935" y="1478" type="curve"/>
      <point x="699" y="1477"/>
      <point x="337" y="1391"/>
      <point x="228" y="1352" type="curve"/>
      <point x="203" y="1340"/>
      <point x="193" y="1320"/>
      <point x="193" y="1283" type="curve" smooth="yes"/>
      <point x="193" y="1279"/>
      <point x="193" y="1275"/>
      <point x="225" y="1208" type="curve"/>
      <point x="230" y="1187"/>
      <point x="248" y="1178"/>
      <point x="280" y="1178" type="curve" smooth="yes"/>
      <point x="293" y="1178"/>
      <point x="306" y="1182"/>
      <point x="324" y="1188" type="curve" smooth="yes"/>
      <point x="347" y="1196"/>
      <point x="651" y="1301"/>
      <point x="943" y="1301" type="curve" smooth="yes"/>
      <point x="1482" y="1301"/>
      <point x="1621" y="1197"/>
      <point x="1621" y="972" type="curve" smooth="yes"/>
      <point x="1621" y="493"/>
      <point x="313" y="1069"/>
      <point x="133" y="120" type="curve" smooth="yes"/>
      <point x="131" y="109"/>
      <point x="130" y="100"/>
      <point x="130" y="90" type="curve" smooth="yes"/>
      <point x="130" y="34"/>
      <point x="164" y="0"/>
    </contour>
  </outline>
</glyph>
<glyph name="three" format="1">
  <advance width="1959"/>
  <unicode hex="0033"/>
  <outline>
    <contour>
      <point x="1004" y="-40" type="curve" smooth="yes"/>
      <point x="1609" y="-40"/>
      <point x="1816" y="135"/>
      <point x="1816" y="387" type="curve" smooth="yes"/>
      <point x="1816" y="565"/>
      <point x="1691" y="697"/>
      <point x="1482" y="723" type="curve"/>
      <point x="1682" y="743"/>
      <point x="1793" y="869"/>
      <point x="1793" y="1047" type="curve" smooth="yes"/>
      <point x="1793" y="1289"/>
      <point x="1641" y="1474"/>
      <point x="1036" y="1474" type="curve" smooth="yes"/>
      <point x="795" y="1474"/>
      <point x="303" y="1401"/>
      <point x="191" y="1368" type="curve" smooth="yes"/>
      <point x="154" y="1358"/>
      <point x="138" y="1341"/>
      <point x="138" y="1311" type="curve" smooth="yes"/>
      <point x="138" y="1307"/>
      <point x="138" y="1303"/>
      <point x="139" y="1298" type="curve" smooth="yes"/>
      <point x="150" y="1241" type="line"/>
      <point x="154" y="1210"/>
      <point x="174" y="1197"/>
      <point x="200" y="1197" type="curve" smooth="yes"/>
      <point x="207" y="1197"/>
      <point x="215" y="1198"/>
      <point x="224" y="1200" type="curve" smooth="yes"/>
      <point x="263" y="1207"/>
      <point x="672" y="1299"/>
      <point x="1042" y="1299" type="curve" smooth="yes"/>
      <point x="1382" y="1299"/>
      <point x="1547" y="1236"/>
      <point x="1565" y="1096" type="curve" smooth="yes"/>
      <point x="1582" y="962"/>
      <point x="1529" y="812"/>
      <point x="1115" y="812" type="curve" smooth="yes"/>
      <point x="879" y="812" type="line" smooth="yes"/>
      <point x="847" y="812"/>
      <point x="847" y="783"/>
      <point x="847" y="769" type="curve" smooth="yes"/>
      <point x="847" y="685" type="line" smooth="yes"/>
      <point x="847" y="671"/>
      <point x="847" y="642"/>
      <point x="879" y="642" type="curve" smooth="yes"/>
      <point x="1115" y="642" type="line" smooth="yes"/>
      <point x="1514" y="642"/>
      <point x="1604" y="504"/>
      <point x="1587" y="368" type="curve" smooth="yes"/>
      <point x="1575" y="273"/>
      <point x="1492" y="135"/>
      <point x="1014" y="135" type="curve" smooth="yes"/>
      <point x="680" y="135"/>
      <point x="250" y="225"/>
      <point x="211" y="232" type="curve" smooth="yes"/>
      <point x="202" y="234"/>
      <point x="195" y="235"/>
      <point x="188" y="235" type="curve" smooth="yes"/>
      <point x="162" y="235"/>
      <point x="148" y="222"/>
      <point x="144" y="191" type="curve"/>
      <point x="139" y="132" type="line" smooth="yes"/>
      <point x="138" y="127"/>
      <point x="138" y="123"/>
      <point x="138" y="119" type="curve" smooth="yes"/>
      <point x="138" y="89"/>
      <point x="154" y="72"/>
      <point x="191" y="62" type="curve" smooth="yes"/>
      <point x="303" y="29"/>
      <point x="806" y="-40"/>
    </contour>
  </outline>
</glyph>
<glyph name="eight" format="1">
  <advance width="1940"/>
  <unicode hex="0038"/>
  <outline>
    <contour>
      <point x="971" y="-41" type="curve" smooth="yes"/>
      <point x="1432" y="-41"/>
      <point x="1805" y="15"/>
      <point x="1805" y="387" type="curve" smooth="yes"/>
      <point x="1805" y="545"/>
      <point x="1666" y="663"/>
      <point x="1500" y="699" type="curve"/>
      <point x="1608" y="737"/>
      <point x="1705" y="879"/>
      <point x="1705" y="1029" type="curve" smooth="yes"/>
      <point x="1705" y="1371"/>
      <point x="1432" y="1473"/>
      <point x="971" y="1473" type="curve" smooth="yes"/>
      <point x="513" y="1473"/>
      <point x="217" y="1358"/>
      <point x="217" y="1059" type="curve" smooth="yes"/>
      <point x="217" y="909"/>
      <point x="319" y="795"/>
      <point x="395" y="752" type="curve"/>
      <point x="272" y="695"/>
      <point x="137" y="561"/>
      <point x="137" y="403" type="curve" smooth="yes"/>
      <point x="137" y="10"/>
      <point x="513" y="-41"/>
    </contour>
    <contour>
      <point x="971" y="135" type="curve" smooth="yes"/>
      <point x="584" y="135"/>
      <point x="360" y="171"/>
      <point x="360" y="403" type="curve" smooth="yes"/>
      <point x="360" y="498"/>
      <point x="422" y="613"/>
      <point x="554" y="687" type="curve"/>
      <point x="783" y="658"/>
      <point x="1008" y="623"/>
      <point x="1149" y="605" type="curve" smooth="yes"/>
      <point x="1462" y="566"/>
      <point x="1580" y="522"/>
      <point x="1580" y="398" type="curve" smooth="yes"/>
      <point x="1580" y="177"/>
      <point x="1420" y="135"/>
    </contour>
    <contour>
      <point x="1334" y="761" type="curve"/>
      <point x="1087" y="781"/>
      <point x="783" y="820"/>
      <point x="783" y="820" type="curve"/>
      <point x="493" y="845"/>
      <point x="439" y="967"/>
      <point x="439" y="1059" type="curve" smooth="yes"/>
      <point x="439" y="1242"/>
      <point x="603" y="1297"/>
      <point x="971" y="1297" type="curve" smooth="yes"/>
      <point x="1348" y="1297"/>
      <point x="1502" y="1229"/>
      <point x="1502" y="1025" type="curve" smooth="yes"/>
      <point x="1502" y="887"/>
      <point x="1396" y="812"/>
    </contour>
  </outline>
</glyph>
<glyph name="nine" format="1">
  <advance width="1872"/>
  <unicode hex="0039"/>
  <outline>
    <contour>
      <point x="882" y="-42" type="curve" smooth="yes"/>
      <point x="1451" y="-42"/>
      <point x="1732" y="135"/>
      <point x="1732" y="694" type="curve" smooth="yes"/>
      <point x="1732" y="1138"/>
      <point x="1604" y="1472"/>
      <point x="952" y="1472" type="curve" smooth="yes"/>
      <point x="491" y="1472"/>
      <point x="131" y="1369"/>
      <point x="131" y="1004" type="curve" smooth="yes"/>
      <point x="131" y="747"/>
      <point x="294" y="534"/>
      <point x="903" y="534" type="curve" smooth="yes"/>
      <point x="1066" y="534"/>
      <point x="1261" y="549"/>
      <point x="1494" y="583" type="curve"/>
      <point x="1494" y="520" type="line" smooth="yes"/>
      <point x="1494" y="278"/>
      <point x="1332" y="135"/>
      <point x="903" y="135" type="curve" smooth="yes"/>
      <point x="729" y="135"/>
      <point x="456" y="185"/>
      <point x="370" y="224" type="curve" smooth="yes"/>
      <point x="365" y="226"/>
      <point x="360" y="227"/>
      <point x="354" y="227" type="curve" smooth="yes"/>
      <point x="340" y="227"/>
      <point x="325" y="219"/>
      <point x="319" y="201" type="curve" smooth="yes"/>
      <point x="288" y="106" type="line" smooth="yes"/>
      <point x="286" y="101"/>
      <point x="286" y="96"/>
      <point x="286" y="91" type="curve" smooth="yes"/>
      <point x="286" y="73"/>
      <point x="297" y="60"/>
      <point x="314" y="53" type="curve" smooth="yes"/>
      <point x="434" y="5"/>
      <point x="700" y="-42"/>
    </contour>
    <contour>
      <point x="910" y="695" type="curve" smooth="yes"/>
      <point x="462" y="695"/>
      <point x="360" y="824"/>
      <point x="360" y="996" type="curve" smooth="yes"/>
      <point x="360" y="1240"/>
      <point x="562" y="1296"/>
      <point x="952" y="1296" type="curve" smooth="yes"/>
      <point x="1339" y="1296"/>
      <point x="1503" y="1143"/>
      <point x="1503" y="875" type="curve" smooth="yes"/>
      <point x="1503" y="744" type="line"/>
      <point x="1258" y="710"/>
      <point x="1063" y="695"/>
    </contour>
  </outline>
</glyph>
<glyph name="semicolon" format="1">
  <advance width="626"/>
  <unicode hex="003B"/>
  <outline>
    <contour>
      <point x="212" y="-301" type="curve" smooth="yes"/>
      <point x="350" y="-278"/>
      <point x="481" y="-142"/>
      <point x="481" y="95" type="curve" smooth="yes"/>
      <point x="481" y="240" type="line" smooth="yes"/>
      <point x="481" y="283"/>
      <point x="447" y="317"/>
      <point x="404" y="317" type="curve" smooth="yes"/>
      <point x="206" y="317" type="line" smooth="yes"/>
      <point x="163" y="317"/>
      <point x="146" y="296"/>
      <point x="146" y="253" type="curve" smooth="yes"/>
      <point x="146" y="50" type="line" smooth="yes"/>
      <point x="146" y="12"/>
      <point x="168" y="0"/>
      <point x="206" y="0" type="curve" smooth="yes"/>
      <point x="291" y="0" type="line" smooth="yes"/>
      <point x="306" y="0"/>
      <point x="308" y="-11"/>
      <point x="308" y="-27" type="curve" smooth="yes"/>
      <point x="308" y="-51"/>
      <point x="276" y="-128"/>
      <point x="207" y="-171" type="curve" smooth="yes"/>
      <point x="164" y="-198"/>
      <point x="146" y="-192"/>
      <point x="146" y="-246" type="curve" smooth="yes"/>
      <point x="146" y="-256" type="line" smooth="yes"/>
      <point x="146" y="-292"/>
      <point x="177" y="-307"/>
    </contour>
    <contour>
      <point x="246" y="754" type="curve" smooth="yes"/>
      <point x="383" y="754" type="line" smooth="yes"/>
      <point x="426" y="754"/>
      <point x="460" y="788"/>
      <point x="460" y="831" type="curve" smooth="yes"/>
      <point x="460" y="975" type="line" smooth="yes"/>
      <point x="460" y="1018"/>
      <point x="426" y="1052"/>
      <point x="383" y="1052" type="curve" smooth="yes"/>
      <point x="246" y="1052" type="line" smooth="yes"/>
      <point x="203" y="1052"/>
      <point x="169" y="1018"/>
      <point x="169" y="975" type="curve" smooth="yes"/>
      <point x="169" y="831" type="line" smooth="yes"/>
      <point x="169" y="788"/>
      <point x="203" y="754"/>
    </contour>
  </outline>
</glyph>
<glyph name="A" format="1">
  <advance width="1887"/>
  <unicode hex="0041"/>
  <outline>
    <contour>
      <point x="149" y="0" type="curve" smooth="yes"/>
      <point x="258" y="0" type="line" smooth="yes"/>
      <point x="301" y="0"/>
      <point x="337" y="24"/>
      <point x="357" y="67" type="curve"/>
      <point x="489" y="332" type="line"/>
      <point x="498" y="338" type="line"/>
      <point x="1392" y="338" type="line"/>
      <point x="1400" y="333" type="line"/>
      <point x="1525" y="67" type="line" smooth="yes"/>
      <point x="1545" y="23"/>
      <point x="1583" y="0"/>
      <point x="1626" y="0" type="curve" smooth="yes"/>
      <point x="1736" y="0" type="line" smooth="yes"/>
      <point x="1765" y="0"/>
      <point x="1780" y="11"/>
      <point x="1780" y="31" type="curve" smooth="yes"/>
      <point x="1780" y="41"/>
      <point x="1776" y="53"/>
      <point x="1769" y="67" type="curve" smooth="yes"/>
      <point x="1121" y="1371" type="line" smooth="yes"/>
      <point x="1100" y="1412"/>
      <point x="1067" y="1435"/>
      <point x="1027" y="1438" type="curve"/>
      <point x="897" y="1438" type="line"/>
      <point x="857" y="1435"/>
      <point x="824" y="1412"/>
      <point x="804" y="1371" type="curve"/>
      <point x="114" y="67" type="line" smooth="yes"/>
      <point x="107" y="53"/>
      <point x="104" y="42"/>
      <point x="104" y="32" type="curve" smooth="yes"/>
      <point x="104" y="11"/>
      <point x="120" y="0"/>
    </contour>
    <contour>
      <point x="566" y="473" type="line" smooth="yes"/>
      <point x="561" y="473"/>
      <point x="559" y="475"/>
      <point x="559" y="477" type="curve" smooth="yes"/>
      <point x="559" y="478"/>
      <point x="560" y="479"/>
      <point x="560" y="480" type="curve" smooth="yes"/>
      <point x="957" y="1262" type="line" smooth="yes"/>
      <point x="958" y="1262"/>
      <point x="958" y="1264"/>
      <point x="959" y="1264" type="curve" smooth="yes"/>
      <point x="960" y="1264"/>
      <point x="960" y="1263"/>
      <point x="961" y="1262" type="curve" smooth="yes"/>
      <point x="1334" y="481" type="line" smooth="yes"/>
      <point x="1335" y="480"/>
      <point x="1336" y="478"/>
      <point x="1336" y="476" type="curve" smooth="yes"/>
      <point x="1336" y="474"/>
      <point x="1335" y="473"/>
      <point x="1331" y="473" type="curve" smooth="yes"/>
    </contour>
    <contour>
      <point x="944" y="1438" type="move" name="top"/>
    </contour>
    <contour>
      <point x="1698" y="10" type="move" name="ogonek"/>
    </contour>
  </outline>
</glyph>
<glyph name="E" format="1">
  <advance width="1705"/>
  <unicode hex="0045"/>
  <outline>
    <contour>
      <point x="227" y="0" type="curve" smooth="yes"/>
      <point x="1501" y="0" type="line" smooth="yes"/>
      <point x="1544" y="0"/>
      <point x="1568" y="34"/>
      <point x="1568" y="77" type="curve" smooth="yes"/>
      <point x="1568" y="84" type="line" smooth="yes"/>
      <point x="1568" y="127"/>
      <point x="1544" y="160"/>
      <point x="1501" y="160" type="curve" smooth="yes"/>
      <point x="402" y="160" type="line"/>
      <point x="388" y="177" type="line"/>
      <point x="388" y="646" type="line"/>
      <point x="408" y="663" type="line"/>
      <point x="1389" y="663" type="line" smooth="yes"/>
      <point x="1432" y="663"/>
      <point x="1456" y="697"/>
      <point x="1456" y="740" type="curve" smooth="yes"/>
      <point x="1456" y="746" type="line" smooth="yes"/>
      <point x="1456" y="789"/>
      <point x="1432" y="823"/>
      <point x="1389" y="823" type="curve" smooth="yes"/>
      <point x="402" y="823" type="line"/>
      <point x="388" y="849" type="line"/>
      <point x="388" y="1253" type="line" smooth="yes"/>
      <point x="388" y="1273"/>
      <point x="395" y="1278"/>
      <point x="415" y="1278" type="curve" smooth="yes"/>
      <point x="1501" y="1278" type="line" smooth="yes"/>
      <point x="1544" y="1278"/>
      <point x="1568" y="1312"/>
      <point x="1568" y="1355" type="curve" smooth="yes"/>
      <point x="1568" y="1361" type="line" smooth="yes"/>
      <point x="1568" y="1404"/>
      <point x="1544" y="1438"/>
      <point x="1501" y="1438" type="curve" smooth="yes"/>
      <point x="227" y="1438" type="line" smooth="yes"/>
      <point x="184" y="1438"/>
      <point x="160" y="1404"/>
      <point x="160" y="1361" type="curve" smooth="yes"/>
      <point x="160" y="67" type="line" smooth="yes"/>
      <point x="160" y="24"/>
      <point x="184" y="0"/>
    </contour>
    <contour>
      <point x="853" y="1438" type="move" name="top"/>
    </contour>
    <contour>
      <point x="853" y="0" type="move" name="bottom"/>
    </contour>
    <contour>
      <point x="1534" y="10" type="move" name="ogonek"/>
    </contour>
  </outline>
</glyph>
<glyph name="G" format="1">
  <advance width="2288"/>
  <unicode hex="0047"/>
  <outline>
    <contour>
      <point x="1133" y="-41" type="curve" smooth="yes"/>
      <point x="1415" y="-41"/>
      <point x="1747" y="31"/>
      <point x="1940" y="265" type="curve"/>
      <point x="1947" y="271"/>
      <point x="1951" y="275"/>
      <point x="1954" y="275" type="curve" smooth="yes"/>
      <point x="1960" y="275"/>
      <point x="1962" y="259"/>
      <point x="1963" y="252" type="curve" smooth="yes"/>
      <point x="1972" y="199"/>
      <point x="1982" y="100"/>
      <point x="1991" y="70" type="curve" smooth="yes"/>
      <point x="2004" y="27"/>
      <point x="2027" y="0"/>
      <point x="2073" y="0" type="curve" smooth="yes"/>
      <point x="2116" y="0"/>
      <point x="2140" y="34"/>
      <point x="2140" y="77" type="curve" smooth="yes"/>
      <point x="2140" y="683" type="line" smooth="yes"/>
      <point x="2140" y="726"/>
      <point x="2106" y="760"/>
      <point x="2063" y="760" type="curve" smooth="yes"/>
      <point x="1309" y="760" type="line" smooth="yes"/>
      <point x="1266" y="760"/>
      <point x="1232" y="734"/>
      <point x="1232" y="691" type="curve" smooth="yes"/>
      <point x="1232" y="674" type="line" smooth="yes"/>
      <point x="1232" y="631"/>
      <point x="1266" y="605"/>
      <point x="1309" y="605" type="curve" smooth="yes"/>
      <point x="1898" y="605" type="line" smooth="yes"/>
      <point x="1914" y="605"/>
      <point x="1920" y="579"/>
      <point x="1920" y="563" type="curve" smooth="yes"/>
      <point x="1920" y="315"/>
      <point x="1538" y="127"/>
      <point x="1133" y="127" type="curve" smooth="yes"/>
      <point x="746" y="127"/>
      <point x="362" y="231"/>
      <point x="362" y="721" type="curve" smooth="yes"/>
      <point x="362" y="1139"/>
      <point x="733" y="1307"/>
      <point x="1133" y="1307" type="curve" smooth="yes"/>
      <point x="1431" y="1307"/>
      <point x="1695" y="1215"/>
      <point x="1823" y="1028" type="curve" smooth="yes"/>
      <point x="1828" y="1020"/>
      <point x="1857" y="972"/>
      <point x="1914" y="972" type="curve" smooth="yes"/>
      <point x="1920" y="972"/>
      <point x="2068" y="998"/>
      <point x="2068" y="998" type="curve" smooth="yes"/>
      <point x="2080" y="1000"/>
      <point x="2086" y="1008"/>
      <point x="2086" y="1017" type="curve" smooth="yes"/>
      <point x="2086" y="1022"/>
      <point x="2085" y="1027"/>
      <point x="2082" y="1033" type="curve" smooth="yes"/>
      <point x="1910" y="1362"/>
      <point x="1497" y="1475"/>
      <point x="1133" y="1475" type="curve" smooth="yes"/>
      <point x="675" y="1475"/>
      <point x="133" y="1293"/>
      <point x="133" y="721" type="curve" smooth="yes"/>
      <point x="133" y="102"/>
      <point x="675" y="-41"/>
    </contour>
    <contour>
      <point x="1144" y="1438" type="move" name="top"/>
    </contour>
    <contour>
      <point x="1144" y="0" type="move" name="bottom"/>
    </contour>
  </outline>
</glyph>
<glyph name="H" format="1">
  <advance width="2048"/>
  <unicode hex="0048"/>
  <outline>
    <contour>
      <point x="227" y="0" type="curve" smooth="yes"/>
      <point x="321" y="0" type="line" smooth="yes"/>
      <point x="364" y="0"/>
      <point x="388" y="24"/>
      <point x="388" y="67" type="curve" smooth="yes"/>
      <point x="388" y="647" type="line"/>
      <point x="404" y="663" type="line"/>
      <point x="1644" y="663" type="line"/>
      <point x="1660" y="645" type="line"/>
      <point x="1660" y="67" type="line" smooth="yes"/>
      <point x="1660" y="24"/>
      <point x="1684" y="0"/>
      <point x="1727" y="0" type="curve" smooth="yes"/>
      <point x="1821" y="0" type="line" smooth="yes"/>
      <point x="1864" y="0"/>
      <point x="1888" y="24"/>
      <point x="1888" y="67" type="curve" smooth="yes"/>
      <point x="1888" y="1371" type="line" smooth="yes"/>
      <point x="1888" y="1414"/>
      <point x="1864" y="1438"/>
      <point x="1821" y="1438" type="curve" smooth="yes"/>
      <point x="1727" y="1438" type="line" smooth="yes"/>
      <point x="1684" y="1438"/>
      <point x="1660" y="1414"/>
      <point x="1660" y="1371" type="curve" smooth="yes"/>
      <point x="1660" y="841" type="line"/>
      <point x="1642" y="823" type="line"/>
      <point x="402" y="823" type="line"/>
      <point x="388" y="838" type="line"/>
      <point x="388" y="1371" type="line" smooth="yes"/>
      <point x="388" y="1414"/>
      <point x="364" y="1438"/>
      <point x="321" y="1438" type="curve" smooth="yes"/>
      <point x="227" y="1438" type="line" smooth="yes"/>
      <point x="184" y="1438"/>
      <point x="160" y="1414"/>
      <point x="160" y="1371" type="curve" smooth="yes"/>
      <point x="160" y="67" type="line" smooth="yes"/>
      <point x="160" y="24"/>
      <point x="184" y="0"/>
    </contour>
    <contour>
      <point x="1024" y="1438" type="move" name="top"/>
    </contour>
    <contour>
      <point x="1024" y="719" type="move" name="center"/>
    </contour>
  </outline>
</glyph>
<glyph name="J" format="1">
  <advance width="1188"/>
  <unicode hex="004A"/>
  <outline>
    <contour>
      <point x="112" y="-229" type="curve" smooth="yes"/>
      <point x="573" y="-229"/>
      <point x="1032" y="-156"/>
      <point x="1032" y="463" type="curve" smooth="yes"/>
      <point x="1032" y="1371" type="line" smooth="yes"/>
      <point x="1032" y="1414"/>
      <point x="1008" y="1438"/>
      <point x="965" y="1438" type="curve" smooth="yes"/>
      <point x="871" y="1438" type="line" smooth="yes"/>
      <point x="828" y="1438"/>
      <point x="804" y="1414"/>
      <point x="804" y="1371" type="curve" smooth="yes"/>
      <point x="804" y="463" type="line" smooth="yes"/>
      <point x="804" y="-27"/>
      <point x="502" y="-53"/>
      <point x="112" y="-53" type="curve" smooth="yes"/>
      <point x="99" y="-53"/>
      <point x="81" y="-67"/>
      <point x="81" y="-107" type="curve" smooth="yes"/>
      <point x="81" y="-176" type="line" smooth="yes"/>
      <point x="81" y="-211"/>
      <point x="97" y="-229"/>
    </contour>
    <contour>
      <point x="594" y="1438" type="move" name="top"/>
    </contour>
  </outline>
</glyph>
<glyph name="K" format="1">
  <advance width="1621"/>
  <unicode hex="004B"/>
  <outline>
    <contour>
      <point x="227" y="0" type="curve" smooth="yes"/>
      <point x="321" y="0" type="line" smooth="yes"/>
      <point x="364" y="0"/>
      <point x="388" y="24"/>
      <point x="388" y="67" type="curve" smooth="yes"/>
      <point x="388" y="735" type="line"/>
      <point x="1168" y="67" type="line"/>
      <point x="1207" y="32"/>
      <point x="1237" y="0"/>
      <point x="1280" y="0" type="curve" smooth="yes"/>
      <point x="1448" y="0" type="line" smooth="yes"/>
      <point x="1491" y="0"/>
      <point x="1508" y="32"/>
      <point x="1470" y="67" type="curve"/>
      <point x="673" y="736" type="line" smooth="yes"/>
      <point x="667" y="741"/>
      <point x="665" y="745"/>
      <point x="665" y="748" type="curve" smooth="yes"/>
      <point x="665" y="753"/>
      <point x="669" y="757"/>
      <point x="672" y="759" type="curve" smooth="yes"/>
      <point x="1398" y="1365" type="line"/>
      <point x="1436" y="1399"/>
      <point x="1416" y="1438"/>
      <point x="1373" y="1438" type="curve" smooth="yes"/>
      <point x="1216" y="1438" type="line" smooth="yes"/>
      <point x="1173" y="1438"/>
      <point x="1144" y="1410"/>
      <point x="1107" y="1376" type="curve"/>
      <point x="388" y="762" type="line"/>
      <point x="388" y="1371" type="line" smooth="yes"/>
      <point x="388" y="1414"/>
      <point x="364" y="1438"/>
      <point x="321" y="1438" type="curve" smooth="yes"/>
      <point x="227" y="1438" type="line" smooth="yes"/>
      <point x="184" y="1438"/>
      <point x="160" y="1414"/>
      <point x="160" y="1371" type="curve" smooth="yes"/>
      <point x="160" y="67" type="line" smooth="yes"/>
      <point x="160" y="24"/>
      <point x="184" y="0"/>
    </contour>
    <contour>
      <point x="811" y="1438" type="move" name="top"/>
    </contour>
    <contour>
      <point x="811" y="0" type="move" name="bottom"/>
    </contour>
  </outline>
</glyph>
<glyph name="N" format="1">
  <advance width="2048"/>
  <unicode hex="004E"/>
  <outline>
    <contour>
      <point x="227" y="0" type="curve" smooth="yes"/>
      <point x="321" y="0" type="line" smooth="yes"/>
      <point x="364" y="0"/>
      <point x="388" y="24"/>
      <point x="388" y="67" type="curve" smooth="yes"/>
      <point x="388" y="1113" type="line"/>
      <point x="402" y="1122" type="line"/>
      <point x="1676" y="19" type="line"/>
      <point x="1687" y="6"/>
      <point x="1705" y="0"/>
      <point x="1727" y="0" type="curve" smooth="yes"/>
      <point x="1821" y="0" type="line" smooth="yes"/>
      <point x="1864" y="0"/>
      <point x="1888" y="24"/>
      <point x="1888" y="67" type="curve" smooth="yes"/>
      <point x="1888" y="1371" type="line" smooth="yes"/>
      <point x="1888" y="1414"/>
      <point x="1864" y="1438"/>
      <point x="1821" y="1438" type="curve" smooth="yes"/>
      <point x="1727" y="1438" type="line" smooth="yes"/>
      <point x="1684" y="1438"/>
      <point x="1660" y="1414"/>
      <point x="1660" y="1371" type="curve" smooth="yes"/>
      <point x="1660" y="320" type="line"/>
      <point x="1647" y="307" type="line"/>
      <point x="371" y="1420" type="line"/>
      <point x="360" y="1432"/>
      <point x="343" y="1438"/>
      <point x="321" y="1438" type="curve" smooth="yes"/>
      <point x="227" y="1438" type="line" smooth="yes"/>
      <point x="184" y="1438"/>
      <point x="160" y="1414"/>
      <point x="160" y="1371" type="curve" smooth="yes"/>
      <point x="160" y="67" type="line" smooth="yes"/>
      <point x="160" y="24"/>
      <point x="184" y="0"/>
    </contour>
    <contour>
      <point x="1024" y="1438" type="move" name="top"/>
    </contour>
    <contour>
      <point x="1024" y="0" type="move" name="bottom"/>
    </contour>
  </outline>
</glyph>
<glyph name="P" format="1">
  <advance width="2021"/>
  <unicode hex="0050"/>
  <outline>
    <contour>
      <point x="227" y="0" type="curve" smooth="yes"/>
      <point x="321" y="0" type="line" smooth="yes"/>
      <point x="364" y="0"/>
      <point x="388" y="24"/>
      <point x="388" y="67" type="curve" smooth="yes"/>
      <point x="388" y="422" type="line"/>
      <point x="407" y="442" type="line"/>
      <point x="976" y="442" type="line" smooth="yes"/>
      <point x="1507" y="442"/>
      <point x="1888" y="444"/>
      <point x="1888" y="964" type="curve" smooth="yes"/>
      <point x="1888" y="1438"/>
      <point x="1378" y="1438"/>
      <point x="917" y="1438" type="curve" smooth="yes"/>
      <point x="227" y="1438" type="line" smooth="yes"/>
      <point x="184" y="1438"/>
      <point x="160" y="1414"/>
      <point x="160" y="1371" type="curve" smooth="yes"/>
      <point x="160" y="67" type="line" smooth="yes"/>
      <point x="160" y="24"/>
      <point x="184" y="0"/>
    </contour>
    <contour>
      <point x="404" y="618" type="line"/>
      <point x="388" y="639" type="line"/>
      <point x="388" y="1262" type="line"/>
      <point x="405" y="1278" type="line"/>
      <point x="917" y="1278" type="line" smooth="yes"/>
      <point x="1365" y="1278"/>
      <point x="1659" y="1261"/>
      <point x="1659" y="964" type="curve" smooth="yes"/>
      <point x="1659" y="618"/>
      <point x="1464" y="618"/>
      <point x="967" y="618" type="curve" smooth="yes"/>
    </contour>
  </outline>
</glyph>
<glyph name="Q" format="1">
  <advance width="2188"/>
  <unicode hex="0051"/>
  <outline>
    <contour>
      <point x="1642" y="-513" type="curve" smooth="yes"/>
      <point x="1686" y="-491" type="line"/>
      <point x="1723" y="-471"/>
      <point x="1746" y="-437"/>
      <point x="1723" y="-399" type="curve"/>
      <point x="1433" y="124" type="line"/>
      <point x="1234" y="67" type="line"/>
      <point x="1545" y="-495" type="line"/>
      <point x="1567" y="-532"/>
      <point x="1603" y="-533"/>
    </contour>
    <contour>
      <point x="1094" y="127" type="curve" smooth="yes"/>
      <point x="707" y="127"/>
      <point x="363" y="234"/>
      <point x="363" y="724" type="curve" smooth="yes"/>
      <point x="363" y="1142"/>
      <point x="694" y="1307"/>
      <point x="1094" y="1307" type="curve" smooth="yes"/>
      <point x="1497" y="1307"/>
      <point x="1825" y="1142"/>
      <point x="1825" y="724" type="curve" smooth="yes"/>
      <point x="1825" y="234"/>
      <point x="1484" y="127"/>
    </contour>
    <contour>
      <point x="1094" y="-41" type="curve" smooth="yes"/>
      <point x="1555" y="-41"/>
      <point x="2054" y="105"/>
      <point x="2054" y="724" type="curve" smooth="yes"/>
      <point x="2054" y="1296"/>
      <point x="1555" y="1475"/>
      <point x="1094" y="1475" type="curve" smooth="yes"/>
      <point x="636" y="1475"/>
      <point x="134" y="1296"/>
      <point x="134" y="724" type="curve" smooth="yes"/>
      <point x="134" y="105"/>
      <point x="636" y="-41"/>
    </contour>
  </outline>
</glyph>
<glyph name="T" format="1">
  <advance width="1696"/>
  <unicode hex="0054"/>
  <outline>
    <contour>
      <point x="800" y="0" type="curve" smooth="yes"/>
      <point x="894" y="0" type="line" smooth="yes"/>
      <point x="937" y="0"/>
      <point x="961" y="24"/>
      <point x="961" y="67" type="curve" smooth="yes"/>
      <point x="961" y="1253" type="line" smooth="yes"/>
      <point x="961" y="1273"/>
      <point x="968" y="1278"/>
      <point x="988" y="1278" type="curve" smooth="yes"/>
      <point x="1547" y="1278" type="line" smooth="yes"/>
      <point x="1590" y="1278"/>
      <point x="1614" y="1312"/>
      <point x="1614" y="1355" type="curve" smooth="yes"/>
      <point x="1614" y="1361" type="line" smooth="yes"/>
      <point x="1614" y="1404"/>
      <point x="1590" y="1438"/>
      <point x="1547" y="1438" type="curve" smooth="yes"/>
      <point x="145" y="1438" type="line" smooth="yes"/>
      <point x="102" y="1438"/>
      <point x="78" y="1404"/>
      <point x="78" y="1361" type="curve" smooth="yes"/>
      <point x="78" y="1355" type="line" smooth="yes"/>
      <point x="78" y="1312"/>
      <point x="102" y="1278"/>
      <point x="145" y="1278" type="curve" smooth="yes"/>
      <point x="706" y="1278" type="line" smooth="yes"/>
      <point x="726" y="1278"/>
      <point x="733" y="1273"/>
      <point x="733" y="1253" type="curve" smooth="yes"/>
      <point x="733" y="67" type="line" smooth="yes"/>
      <point x="733" y="24"/>
      <point x="757" y="0"/>
    </contour>
    <contour>
      <point x="848" y="1438" type="move" name="top"/>
    </contour>
    <contour>
      <point x="848" y="0" type="move" name="bottom"/>
    </contour>
    <contour>
      <point x="848" y="719" type="move" name="center"/>
    </contour>
  </outline>
</glyph>
<glyph name="V" format="1">
  <advance width="1948"/>
  <unicode hex="0056"/>
  <outline>
    <contour>
      <point x="948" y="0" type="curve"/>
      <point x="1056" y="0" type="line"/>
      <point x="1096" y="3"/>
      <point x="1129" y="26"/>
      <point x="1150" y="67" type="curve" smooth="yes"/>
      <point x="1841" y="1371" type="line" smooth="yes"/>
      <point x="1863" y="1414"/>
      <point x="1852" y="1438"/>
      <point x="1809" y="1438" type="curve" smooth="yes"/>
      <point x="1695" y="1438" type="line" smooth="yes"/>
      <point x="1652" y="1438"/>
      <point x="1614" y="1414"/>
      <point x="1593" y="1371" type="curve" smooth="yes"/>
      <point x="1003" y="192" type="line"/>
      <point x="361" y="1371" type="line" smooth="yes"/>
      <point x="337" y="1414"/>
      <point x="298" y="1438"/>
      <point x="255" y="1438" type="curve" smooth="yes"/>
      <point x="131" y="1438" type="line" smooth="yes"/>
      <point x="88" y="1438"/>
      <point x="78" y="1414"/>
      <point x="103" y="1371" type="curve" smooth="yes"/>
      <point x="849" y="67" type="line" smooth="yes"/>
      <point x="873" y="26"/>
      <point x="908" y="3"/>
    </contour>
  </outline>
</glyph>
<glyph name="W" format="1">
  <advance width="3292"/>
  <unicode hex="0057"/>
  <outline>
    <contour>
      <point x="871" y="0" type="curve"/>
      <point x="989" y="0" type="line"/>
      <point x="1029" y="3"/>
      <point x="1063" y="26"/>
      <point x="1083" y="67" type="curve" smooth="yes"/>
      <point x="1648" y="1251" type="line"/>
      <point x="2261" y="67" type="line" smooth="yes"/>
      <point x="2283" y="25"/>
      <point x="2320" y="3"/>
      <point x="2360" y="0" type="curve"/>
      <point x="2478" y="0" type="line"/>
      <point x="2518" y="3"/>
      <point x="2551" y="26"/>
      <point x="2572" y="67" type="curve"/>
      <point x="3183" y="1371" type="line"/>
      <point x="3205" y="1414"/>
      <point x="3194" y="1438"/>
      <point x="3151" y="1438" type="curve" smooth="yes"/>
      <point x="3037" y="1438" type="line" smooth="yes"/>
      <point x="2994" y="1438"/>
      <point x="2956" y="1414"/>
      <point x="2935" y="1371" type="curve"/>
      <point x="2425" y="192" type="line"/>
      <point x="1813" y="1371" type="line"/>
      <point x="1789" y="1414"/>
      <point x="1750" y="1438"/>
      <point x="1707" y="1438" type="curve" smooth="yes"/>
      <point x="1583" y="1438" type="line" smooth="yes"/>
      <point x="1545" y="1438"/>
      <point x="1507" y="1414"/>
      <point x="1486" y="1371" type="curve" smooth="yes"/>
      <point x="926" y="192" type="line"/>
      <point x="364" y="1371" type="line"/>
      <point x="340" y="1414"/>
      <point x="301" y="1438"/>
      <point x="258" y="1438" type="curve" smooth="yes"/>
      <point x="134" y="1438" type="line" smooth="yes"/>
      <point x="91" y="1438"/>
      <point x="81" y="1414"/>
      <point x="106" y="1371" type="curve"/>
      <point x="772" y="67" type="line"/>
      <point x="796" y="26"/>
      <point x="831" y="3"/>
    </contour>
    <contour>
      <point x="1646" y="1438" type="move" name="top"/>
    </contour>
  </outline>
</glyph>
<glyph name="Y" format="1">
  <advance width="1676"/>
  <unicode hex="0059"/>
  <outline>
    <contour>
      <point x="790" y="0" type="curve" smooth="yes"/>
      <point x="884" y="0" type="line" smooth="yes"/>
      <point x="927" y="0"/>
      <point x="951" y="24"/>
      <point x="951" y="67" type="curve" smooth="yes"/>
      <point x="951" y="717" type="line"/>
      <point x="1572" y="1371" type="line"/>
      <point x="1592" y="1389"/>
      <point x="1599" y="1407"/>
      <point x="1599" y="1418" type="curve" smooth="yes"/>
      <point x="1599" y="1431"/>
      <point x="1588" y="1438"/>
      <point x="1565" y="1438" type="curve" smooth="yes"/>
      <point x="1421" y="1438" type="line" smooth="yes"/>
      <point x="1378" y="1438"/>
      <point x="1333" y="1414"/>
      <point x="1294" y="1371" type="curve" smooth="yes"/>
      <point x="842" y="882" type="line"/>
      <point x="382" y="1371" type="line"/>
      <point x="339" y="1414"/>
      <point x="292" y="1438"/>
      <point x="249" y="1438" type="curve" smooth="yes"/>
      <point x="105" y="1438" type="line" smooth="yes"/>
      <point x="83" y="1438"/>
      <point x="72" y="1432"/>
      <point x="72" y="1420" type="curve" smooth="yes"/>
      <point x="72" y="1409"/>
      <point x="82" y="1391"/>
      <point x="104" y="1371" type="curve"/>
      <point x="723" y="713" type="line"/>
      <point x="723" y="67" type="line" smooth="yes"/>
      <point x="723" y="24"/>
      <point x="747" y="0"/>
    </contour>
    <contour>
      <point x="838" y="1438" type="move" name="top"/>
    </contour>
  </outline>
</glyph>
<glyph name="Z" format="1">
  <advance width="1622"/>
  <unicode hex="005A"/>
  <outline>
    <contour>
      <point x="196" y="0" type="curve" smooth="yes"/>
      <point x="1427" y="0" type="line" smooth="yes"/>
      <point x="1470" y="0"/>
      <point x="1494" y="34"/>
      <point x="1494" y="77" type="curve" smooth="yes"/>
      <point x="1494" y="83" type="line" smooth="yes"/>
      <point x="1494" y="126"/>
      <point x="1470" y="160"/>
      <point x="1427" y="160" type="curve" smooth="yes"/>
      <point x="468" y="160" type="line" smooth="yes"/>
      <point x="453" y="160"/>
      <point x="448" y="166"/>
      <point x="448" y="174" type="curve" smooth="yes"/>
      <point x="448" y="182"/>
      <point x="451" y="184"/>
      <point x="460" y="194" type="curve" smooth="yes"/>
      <point x="1441" y="1226" type="line" smooth="yes"/>
      <point x="1455" y="1241"/>
      <point x="1474" y="1285"/>
      <point x="1474" y="1328" type="curve" smooth="yes"/>
      <point x="1474" y="1361" type="line" smooth="yes"/>
      <point x="1474" y="1404"/>
      <point x="1450" y="1438"/>
      <point x="1407" y="1438" type="curve" smooth="yes"/>
      <point x="206" y="1438" type="line" smooth="yes"/>
      <point x="163" y="1438"/>
      <point x="139" y="1404"/>
      <point x="139" y="1361" type="curve" smooth="yes"/>
      <point x="139" y="1355" type="line" smooth="yes"/>
      <point x="139" y="1312"/>
      <point x="163" y="1278"/>
      <point x="206" y="1278" type="curve" smooth="yes"/>
      <point x="1150" y="1278" type="line" smooth="yes"/>
      <point x="1178" y="1278"/>
      <point x="1181" y="1269"/>
      <point x="1181" y="1258" type="curve" smooth="yes"/>
      <point x="1181" y="1248"/>
      <point x="1176" y="1240"/>
      <point x="1166" y="1229" type="curve" smooth="yes"/>
      <point x="150" y="169" type="line" smooth="yes"/>
      <point x="136" y="155"/>
      <point x="129" y="134"/>
      <point x="129" y="110" type="curve" smooth="yes"/>
      <point x="129" y="77" type="line" smooth="yes"/>
      <point x="129" y="34"/>
      <point x="153" y="0"/>
    </contour>
    <contour>
      <point x="811" y="1438" type="move" name="top"/>
    </contour>
  </outline>
</glyph>
<glyph name="bracketleft" format="1">
  <advance width="1002"/>
  <unicode hex="005B"/>
  <outline>
    <contour>
      <point x="238" y="-65" type="curve" smooth="yes"/>
      <point x="810" y="-65" type="line" smooth="yes"/>
      <point x="853" y="-65"/>
      <point x="877" y="-51"/>
      <point x="877" y="-8" type="curve" smooth="yes"/>
      <point x="877" y="41" type="line" smooth="yes"/>
      <point x="877" y="84"/>
      <point x="853" y="98"/>
      <point x="810" y="98" type="curve" smooth="yes"/>
      <point x="416" y="98" type="line" smooth="yes"/>
      <point x="396" y="98"/>
      <point x="389" y="105"/>
      <point x="389" y="125" type="curve" smooth="yes"/>
      <point x="389" y="1317" type="line" smooth="yes"/>
      <point x="389" y="1337"/>
      <point x="396" y="1344"/>
      <point x="416" y="1344" type="curve" smooth="yes"/>
      <point x="810" y="1344" type="line" smooth="yes"/>
      <point x="853" y="1344"/>
      <point x="877" y="1358"/>
      <point x="877" y="1401" type="curve" smooth="yes"/>
      <point x="877" y="1460" type="line" smooth="yes"/>
      <point x="877" y="1503"/>
      <point x="853" y="1517"/>
      <point x="810" y="1517" type="curve" smooth="yes"/>
      <point x="238" y="1517" type="line" smooth="yes"/>
      <point x="195" y="1517"/>
      <point x="161" y="1483"/>
      <point x="161" y="1440" type="curve" smooth="yes"/>
      <point x="161" y="12" type="line" smooth="yes"/>
      <point x="161" y="-31"/>
      <point x="195" y="-65"/>
    </contour>
  </outline>
</glyph>
<glyph name="backslash" format="1">
  <advance width="1088"/>
  <unicode hex="005C"/>
  <outline>
    <contour>
      <point x="808" y="-205" type="curve" smooth="yes"/>
      <point x="971" y="-205" type="line" smooth="yes"/>
      <point x="989" y="-205"/>
      <point x="1001" y="-187"/>
      <point x="995" y="-170" type="curve" smooth="yes"/>
      <point x="308" y="1612" type="line" smooth="yes"/>
      <point x="300" y="1633"/>
      <point x="280" y="1647"/>
      <point x="258" y="1647" type="curve" smooth="yes"/>
      <point x="95" y="1647" type="line" smooth="yes"/>
      <point x="77" y="1647"/>
      <point x="65" y="1629"/>
      <point x="71" y="1612" type="curve" smooth="yes"/>
      <point x="758" y="-170" type="line" smooth="yes"/>
      <point x="766" y="-191"/>
      <point x="786" y="-205"/>
    </contour>
  </outline>
</glyph>
<glyph name="asciicircum" format="1">
  <advance width="1299"/>
  <unicode hex="005E"/>
  <outline>
    <contour>
      <point x="112" y="201" type="curve" smooth="yes"/>
      <point x="212" y="201" type="line" smooth="yes"/>
      <point x="258" y="201"/>
      <point x="282" y="229"/>
      <point x="302" y="270" type="curve"/>
      <point x="610" y="946" type="line" smooth="yes"/>
      <point x="613" y="953"/>
      <point x="620" y="956"/>
      <point x="626" y="956" type="curve" smooth="yes"/>
      <point x="632" y="956"/>
      <point x="638" y="953"/>
      <point x="642" y="946" type="curve" smooth="yes"/>
      <point x="968" y="270" type="line" smooth="yes"/>
      <point x="987" y="229"/>
      <point x="1011" y="201"/>
      <point x="1057" y="201" type="curve" smooth="yes"/>
      <point x="1140" y="201" type="line" smooth="yes"/>
      <point x="1167" y="201"/>
      <point x="1186" y="223"/>
      <point x="1186" y="247" type="curve" smooth="yes"/>
      <point x="1186" y="255"/>
      <point x="1185" y="262"/>
      <point x="1181" y="269" type="curve" smooth="yes"/>
      <point x="761" y="1139" type="line"/>
      <point x="739" y="1180"/>
      <point x="715" y="1207"/>
      <point x="668" y="1207" type="curve" smooth="yes"/>
      <point x="583" y="1207" type="line" smooth="yes"/>
      <point x="536" y="1207"/>
      <point x="511" y="1180"/>
      <point x="489" y="1140" type="curve"/>
      <point x="72" y="268" type="line" smooth="yes"/>
      <point x="68" y="261"/>
      <point x="66" y="253"/>
      <point x="66" y="246" type="curve" smooth="yes"/>
      <point x="66" y="223"/>
      <point x="85" y="201"/>
    </contour>
  </outline>
</glyph>
<glyph name="d" format="1">
  <advance width="1681"/>
  <unicode hex="0064"/>
  <outline>
    <contour>
      <point x="789" y="-41" type="curve" smooth="yes"/>
      <point x="987" y="-41"/>
      <point x="1204" y="42"/>
      <point x="1321" y="203" type="curve" smooth="yes"/>
      <point x="1325" y="209"/>
      <point x="1329" y="214"/>
      <point x="1333" y="220" type="curve"/>
      <point x="1339" y="202" type="line" smooth="yes"/>
      <point x="1352" y="162"/>
      <point x="1367" y="112"/>
      <point x="1386" y="71" type="curve"/>
      <point x="1406" y="31"/>
      <point x="1428" y="0"/>
      <point x="1454" y="0" type="curve" smooth="yes"/>
      <point x="1468" y="0" type="line" smooth="yes"/>
      <point x="1511" y="0"/>
      <point x="1521" y="24"/>
      <point x="1521" y="67" type="curve" smooth="yes"/>
      <point x="1521" y="1371" type="line" smooth="yes"/>
      <point x="1521" y="1414"/>
      <point x="1497" y="1438"/>
      <point x="1454" y="1438" type="curve" smooth="yes"/>
      <point x="1360" y="1438" type="line" smooth="yes"/>
      <point x="1317" y="1438"/>
      <point x="1293" y="1414"/>
      <point x="1293" y="1371" type="curve" smooth="yes"/>
      <point x="1293" y="866" type="line"/>
      <point x="1293" y="847" type="line"/>
      <point x="1290" y="852"/>
      <point x="1286" y="856"/>
      <point x="1282" y="860" type="curve" smooth="yes"/>
      <point x="1175" y="990"/>
      <point x="1004" y="1053"/>
      <point x="807" y="1053" type="curve" smooth="yes"/>
      <point x="483" y="1053"/>
      <point x="129" y="912"/>
      <point x="129" y="504" type="curve" smooth="yes"/>
      <point x="129" y="107"/>
      <point x="495" y="-41"/>
    </contour>
    <contour>
      <point x="824" y="119" type="curve" smooth="yes"/>
      <point x="570" y="119"/>
      <point x="358" y="243"/>
      <point x="358" y="504" type="curve" smooth="yes"/>
      <point x="358" y="788"/>
      <point x="586" y="893"/>
      <point x="824" y="893" type="curve" smooth="yes"/>
      <point x="1066" y="893"/>
      <point x="1294" y="786"/>
      <point x="1293" y="504" type="curve"/>
      <point x="1294" y="246"/>
      <point x="1082" y="119"/>
    </contour>
    <contour>
      <point x="841" y="503" type="move" name="center"/>
    </contour>
  </outline>
</glyph>
<glyph name="e" format="1">
  <advance width="1608"/>
  <unicode hex="0065"/>
  <outline>
    <contour>
      <point x="853" y="-42" type="curve" smooth="yes"/>
      <point x="1034" y="-42"/>
      <point x="1261" y="8"/>
      <point x="1387" y="69" type="curve" smooth="yes"/>
      <point x="1431" y="90"/>
      <point x="1425" y="113"/>
      <point x="1417" y="140" type="curve" smooth="yes"/>
      <point x="1409" y="168"/>
      <point x="1401" y="188"/>
      <point x="1398" y="195" type="curve" smooth="yes"/>
      <point x="1391" y="215"/>
      <point x="1368" y="222"/>
      <point x="1327" y="203" type="curve" smooth="yes"/>
      <point x="1260" y="172"/>
      <point x="1128" y="110"/>
      <point x="868" y="110" type="curve" smooth="yes"/>
      <point x="451" y="110"/>
      <point x="366" y="314"/>
      <point x="365" y="440" type="curve" smooth="yes"/>
      <point x="365" y="448"/>
      <point x="371" y="450"/>
      <point x="382" y="450" type="curve" smooth="yes"/>
      <point x="1342" y="450" type="line" smooth="yes"/>
      <point x="1451" y="450"/>
      <point x="1473" y="521"/>
      <point x="1474" y="556" type="curve"/>
      <point x="1474" y="607" type="line"/>
      <point x="1426" y="817"/>
      <point x="1268" y="1052"/>
      <point x="839" y="1052" type="curve" smooth="yes"/>
      <point x="511" y="1052"/>
      <point x="130" y="912"/>
      <point x="130" y="504" type="curve" smooth="yes"/>
      <point x="130" y="83"/>
      <point x="499" y="-42"/>
    </contour>
    <contour>
      <point x="377" y="590" type="line" smooth="yes"/>
      <point x="370" y="590"/>
      <point x="369" y="593"/>
      <point x="369" y="597" type="curve" smooth="yes"/>
      <point x="404" y="811"/>
      <point x="626" y="900"/>
      <point x="838" y="900" type="curve" smooth="yes"/>
      <point x="1160" y="900"/>
      <point x="1232" y="733"/>
      <point x="1281" y="592" type="curve"/>
      <point x="1282" y="590" type="line"/>
    </contour>
    <contour>
      <point x="804" y="1006" type="move" name="top"/>
    </contour>
    <contour>
      <point x="804" y="0" type="move" name="bottom"/>
    </contour>
    <contour>
      <point x="1447" y="10" type="move" name="ogonek"/>
    </contour>
  </outline>
</glyph>
<glyph name="h" format="1">
  <advance width="1548"/>
  <unicode hex="0068"/>
  <outline>
    <contour>
      <point x="227" y="0" type="curve" smooth="yes"/>
      <point x="322" y="0" type="line" smooth="yes"/>
      <point x="365" y="0"/>
      <point x="388" y="24"/>
      <point x="388" y="67" type="curve" smooth="yes"/>
      <point x="388" y="606" type="line" smooth="yes"/>
      <point x="388" y="739"/>
      <point x="645" y="900"/>
      <point x="842" y="900" type="curve" smooth="yes"/>
      <point x="1028" y="900"/>
      <point x="1177" y="831"/>
      <point x="1177" y="606" type="curve" smooth="yes"/>
      <point x="1177" y="67" type="line" smooth="yes"/>
      <point x="1177" y="24"/>
      <point x="1201" y="0"/>
      <point x="1244" y="0" type="curve" smooth="yes"/>
      <point x="1338" y="0" type="line" smooth="yes"/>
      <point x="1381" y="0"/>
      <point x="1405" y="24"/>
      <point x="1405" y="67" type="curve" smooth="yes"/>
      <point x="1405" y="552" type="line" smooth="yes"/>
      <point x="1405" y="888"/>
      <point x="1197" y="1052"/>
      <point x="885" y="1052" type="curve" smooth="yes"/>
      <point x="704" y="1052"/>
      <point x="527" y="993"/>
      <point x="398" y="848" type="curve"/>
      <point x="388" y="854" type="line"/>
      <point x="388" y="1371" type="line" smooth="yes"/>
      <point x="388" y="1414"/>
      <point x="364" y="1438"/>
      <point x="321" y="1438" type="curve" smooth="yes"/>
      <point x="227" y="1438" type="line" smooth="yes"/>
      <point x="184" y="1438"/>
      <point x="160" y="1414"/>
      <point x="160" y="1371" type="curve" smooth="yes"/>
      <point x="160" y="67" type="line" smooth="yes"/>
      <point x="160" y="24"/>
      <point x="184" y="0"/>
    </contour>
    <contour>
      <point x="774" y="1006" type="move" name="top"/>
    </contour>
    <contour>
      <point x="774" y="503" type="move" name="center"/>
    </contour>
  </outline>
</glyph>
<glyph name="i" format="1">
  <advance width="547"/>
  <unicode hex="0069"/>
  <outline>
    <contour>
      <point x="227" y="0" type="curve" smooth="yes"/>
      <point x="321" y="0" type="line" smooth="yes"/>
      <point x="364" y="0"/>
      <point x="388" y="24"/>
      <point x="388" y="67" type="curve" smooth="yes"/>
      <point x="388" y="939" type="line" smooth="yes"/>
      <point x="388" y="982"/>
      <point x="364" y="1006"/>
      <point x="321" y="1006" type="curve" smooth="yes"/>
      <point x="227" y="1006" type="line" smooth="yes"/>
      <point x="184" y="1006"/>
      <point x="160" y="982"/>
      <point x="160" y="939" type="curve" smooth="yes"/>
      <point x="160" y="67" type="line" smooth="yes"/>
      <point x="160" y="24"/>
      <point x="184" y="0"/>
    </contour>
    <contour>
      <point x="227" y="1179" type="curve" smooth="yes"/>
      <point x="321" y="1179" type="line" smooth="yes"/>
      <point x="364" y="1179"/>
      <point x="388" y="1203"/>
      <point x="388" y="1246" type="curve" smooth="yes"/>
      <point x="388" y="1344" type="line" smooth="yes"/>
      <point x="388" y="1387"/>
      <point x="364" y="1411"/>
      <point x="321" y="1411" type="curve" smooth="yes"/>
      <point x="227" y="1411" type="line" smooth="yes"/>
      <point x="184" y="1411"/>
      <point x="160" y="1387"/>
      <point x="160" y="1344" type="curve" smooth="yes"/>
      <point x="160" y="1246" type="line" smooth="yes"/>
      <point x="160" y="1203"/>
      <point x="184" y="1179"/>
    </contour>
  </outline>
</glyph>
<glyph name="j" format="1">
  <advance width="786"/>
  <unicode hex="006A"/>
  <outline>
    <contour>
      <point x="200" y="-381" type="line" smooth="yes"/>
      <point x="506" y="-381"/>
      <point x="624" y="-259"/>
      <point x="626" y="6" type="curve"/>
      <point x="626" y="939" type="line" smooth="yes"/>
      <point x="626" y="982"/>
      <point x="602" y="1006"/>
      <point x="559" y="1006" type="curve" smooth="yes"/>
      <point x="465" y="1006" type="line" smooth="yes"/>
      <point x="422" y="1006"/>
      <point x="398" y="982"/>
      <point x="398" y="939" type="curve" smooth="yes"/>
      <point x="398" y="91" type="line" smooth="yes"/>
      <point x="398" y="-95"/>
      <point x="402" y="-205"/>
      <point x="233" y="-205" type="curve" smooth="yes"/>
      <point x="109" y="-205" type="line" smooth="yes"/>
      <point x="66" y="-205"/>
      <point x="50" y="-223"/>
      <point x="50" y="-266" type="curve" smooth="yes"/>
      <point x="50" y="-314" type="line" smooth="yes"/>
      <point x="50" y="-357"/>
      <point x="66" y="-381"/>
      <point x="109" y="-381" type="curve" smooth="yes"/>
    </contour>
    <contour>
      <point x="458" y="1179" type="curve" smooth="yes"/>
      <point x="552" y="1179" type="line" smooth="yes"/>
      <point x="595" y="1179"/>
      <point x="619" y="1203"/>
      <point x="619" y="1246" type="curve" smooth="yes"/>
      <point x="619" y="1344" type="line" smooth="yes"/>
      <point x="619" y="1387"/>
      <point x="595" y="1411"/>
      <point x="552" y="1411" type="curve" smooth="yes"/>
      <point x="458" y="1411" type="line" smooth="yes"/>
      <point x="415" y="1411"/>
      <point x="391" y="1387"/>
      <point x="391" y="1344" type="curve" smooth="yes"/>
      <point x="391" y="1246" type="line" smooth="yes"/>
      <point x="391" y="1203"/>
      <point x="415" y="1179"/>
    </contour>
  </outline>
</glyph>
<glyph name="m" format="1">
  <advance width="2535"/>
  <unicode hex="006D"/>
  <outline>
    <contour>
      <point x="219" y="0" type="curve" smooth="yes"/>
      <point x="314" y="0" type="line" smooth="yes"/>
      <point x="357" y="0"/>
      <point x="380" y="24"/>
      <point x="380" y="67" type="curve" smooth="yes"/>
      <point x="380" y="606" type="line" smooth="yes"/>
      <point x="380" y="739"/>
      <point x="637" y="900"/>
      <point x="834" y="900" type="curve" smooth="yes"/>
      <point x="1020" y="900"/>
      <point x="1157" y="831"/>
      <point x="1157" y="606" type="curve" smooth="yes"/>
      <point x="1157" y="67" type="line" smooth="yes"/>
      <point x="1157" y="24"/>
      <point x="1181" y="0"/>
      <point x="1224" y="0" type="curve" smooth="yes"/>
      <point x="1318" y="0" type="line" smooth="yes"/>
      <point x="1361" y="0"/>
      <point x="1385" y="24"/>
      <point x="1385" y="67" type="curve" smooth="yes"/>
      <point x="1385" y="598" type="line"/>
      <point x="1386" y="599"/>
      <point x="1387" y="602"/>
      <point x="1387" y="606" type="curve" smooth="yes"/>
      <point x="1387" y="739"/>
      <point x="1628" y="901"/>
      <point x="1825" y="901" type="curve" smooth="yes"/>
      <point x="2011" y="901"/>
      <point x="2164" y="831"/>
      <point x="2164" y="606" type="curve" smooth="yes"/>
      <point x="2164" y="67" type="line" smooth="yes"/>
      <point x="2164" y="24"/>
      <point x="2188" y="0"/>
      <point x="2231" y="0" type="curve" smooth="yes"/>
      <point x="2325" y="0" type="line" smooth="yes"/>
      <point x="2368" y="0"/>
      <point x="2392" y="24"/>
      <point x="2392" y="67" type="curve" smooth="yes"/>
      <point x="2392" y="552" type="line" smooth="yes"/>
      <point x="2392" y="888"/>
      <point x="2180" y="1052"/>
      <point x="1868" y="1052" type="curve" smooth="yes"/>
      <point x="1678" y="1052"/>
      <point x="1487" y="990"/>
      <point x="1362" y="826" type="curve" smooth="yes"/>
      <point x="1348" y="808"/>
      <point x="1345" y="801"/>
      <point x="1337" y="801" type="curve" smooth="yes"/>
      <point x="1325" y="801"/>
      <point x="1323" y="812"/>
      <point x="1318" y="822" type="curve" smooth="yes"/>
      <point x="1239" y="982"/>
      <point x="1091" y="1052"/>
      <point x="877" y="1052" type="curve" smooth="yes"/>
      <point x="687" y="1052"/>
      <point x="501" y="987"/>
      <point x="371" y="826" type="curve" smooth="yes"/>
      <point x="365" y="819"/>
      <point x="359" y="811"/>
      <point x="351" y="811" type="curve" smooth="yes"/>
      <point x="343" y="811"/>
      <point x="341" y="816"/>
      <point x="336" y="824" type="curve"/>
      <point x="309" y="942" type="line" smooth="yes"/>
      <point x="298" y="992"/>
      <point x="276" y="1006"/>
      <point x="229" y="1006" type="curve" smooth="yes"/>
      <point x="209" y="1006" type="line" smooth="yes"/>
      <point x="166" y="1006"/>
      <point x="152" y="972"/>
      <point x="152" y="929" type="curve" smooth="yes"/>
      <point x="152" y="67" type="line" smooth="yes"/>
      <point x="152" y="24"/>
      <point x="176" y="0"/>
    </contour>
  </outline>
</glyph>
<glyph name="o" format="1">
  <advance width="1649"/>
  <unicode hex="006F"/>
  <outline>
    <contour>
      <point x="826" y="111" type="curve" smooth="yes"/>
      <point x="568" y="111"/>
      <point x="356" y="246"/>
      <point x="357" y="504" type="curve"/>
      <point x="356" y="786"/>
      <point x="584" y="900"/>
      <point x="826" y="900" type="curve" smooth="yes"/>
      <point x="1064" y="900"/>
      <point x="1292" y="788"/>
      <point x="1292" y="504" type="curve" smooth="yes"/>
      <point x="1292" y="243"/>
      <point x="1080" y="111"/>
    </contour>
    <contour>
      <point x="827" y="-41" type="curve" smooth="yes"/>
      <point x="1121" y="-41"/>
      <point x="1521" y="107"/>
      <point x="1521" y="504" type="curve" smooth="yes"/>
      <point x="1521" y="912"/>
      <point x="1151" y="1052"/>
      <point x="827" y="1052" type="curve" smooth="yes"/>
      <point x="498" y="1052"/>
      <point x="128" y="912"/>
      <point x="128" y="504" type="curve" smooth="yes"/>
      <point x="128" y="106"/>
      <point x="528" y="-41"/>
    </contour>
    <contour>
      <point x="825" y="1006" type="move" name="top"/>
    </contour>
  </outline>
</glyph>
<glyph name="p" format="1">
  <advance width="1674"/>
  <unicode hex="0070"/>
  <outline>
    <contour>
      <point x="220" y="-427" type="curve" smooth="yes"/>
      <point x="314" y="-427" type="line" smooth="yes"/>
      <point x="357" y="-427"/>
      <point x="381" y="-403"/>
      <point x="381" y="-360" type="curve" smooth="yes"/>
      <point x="381" y="147" type="line" smooth="yes"/>
      <point x="381" y="153"/>
      <point x="383" y="155"/>
      <point x="385" y="155" type="curve" smooth="yes"/>
      <point x="387" y="155"/>
      <point x="390" y="153"/>
      <point x="392" y="150" type="curve" smooth="yes"/>
      <point x="500" y="21"/>
      <point x="670" y="-42"/>
      <point x="867" y="-42" type="curve" smooth="yes"/>
      <point x="1191" y="-42"/>
      <point x="1545" y="99"/>
      <point x="1545" y="507" type="curve" smooth="yes"/>
      <point x="1545" y="904"/>
      <point x="1179" y="1052"/>
      <point x="885" y="1052" type="curve" smooth="yes"/>
      <point x="686" y="1052"/>
      <point x="468" y="968"/>
      <point x="351" y="806" type="curve" smooth="yes"/>
      <point x="347" y="802"/>
      <point x="343" y="800"/>
      <point x="341" y="800" type="curve" smooth="yes"/>
      <point x="336" y="800"/>
      <point x="333" y="805"/>
      <point x="331" y="811" type="curve" smooth="yes"/>
      <point x="320" y="844"/>
      <point x="310" y="879"/>
      <point x="298" y="917" type="curve" smooth="yes"/>
      <point x="275" y="990"/>
      <point x="251" y="1011"/>
      <point x="220" y="1011" type="curve" smooth="yes"/>
      <point x="206" y="1011" type="line" smooth="yes"/>
      <point x="163" y="1011"/>
      <point x="153" y="987"/>
      <point x="153" y="944" type="curve" smooth="yes"/>
      <point x="153" y="-360" type="line" smooth="yes"/>
      <point x="153" y="-403"/>
      <point x="177" y="-427"/>
    </contour>
    <contour>
      <point x="850" y="110" type="curve" smooth="yes"/>
      <point x="608" y="110"/>
      <point x="380" y="225"/>
      <point x="381" y="507" type="curve"/>
      <point x="380" y="765"/>
      <point x="592" y="900"/>
      <point x="850" y="900" type="curve" smooth="yes"/>
      <point x="1104" y="900"/>
      <point x="1316" y="768"/>
      <point x="1316" y="507" type="curve" smooth="yes"/>
      <point x="1316" y="223"/>
      <point x="1088" y="110"/>
    </contour>
  </outline>
</glyph>
<glyph name="s" format="1">
  <advance width="1557"/>
  <unicode hex="0073"/>
  <outline>
    <contour>
      <point x="797" y="-41" type="curve" smooth="yes"/>
      <point x="1296" y="-41"/>
      <point x="1425" y="95"/>
      <point x="1425" y="307" type="curve" smooth="yes"/>
      <point x="1425" y="570"/>
      <point x="1200" y="592"/>
      <point x="807" y="619" type="curve" smooth="yes"/>
      <point x="378" y="648"/>
      <point x="354" y="658"/>
      <point x="354" y="754" type="curve" smooth="yes"/>
      <point x="354" y="858"/>
      <point x="501" y="896"/>
      <point x="819" y="896" type="curve" smooth="yes"/>
      <point x="1013" y="896"/>
      <point x="1103" y="867"/>
      <point x="1204" y="836" type="curve" smooth="yes"/>
      <point x="1243" y="824"/>
      <point x="1290" y="827"/>
      <point x="1306" y="862" type="curve" smooth="yes"/>
      <point x="1319" y="890" type="line" smooth="yes"/>
      <point x="1334" y="921"/>
      <point x="1317" y="957"/>
      <point x="1283" y="970" type="curve" smooth="yes"/>
      <point x="1138" y="1024"/>
      <point x="993" y="1053"/>
      <point x="768" y="1053" type="curve" smooth="yes"/>
      <point x="536" y="1053"/>
      <point x="147" y="1034"/>
      <point x="147" y="734" type="curve" smooth="yes"/>
      <point x="147" y="505"/>
      <point x="398" y="462"/>
      <point x="765" y="448" type="curve" smooth="yes"/>
      <point x="1193" y="432"/>
      <point x="1233" y="392"/>
      <point x="1233" y="296" type="curve" smooth="yes"/>
      <point x="1233" y="182"/>
      <point x="1151" y="116"/>
      <point x="816" y="116" type="curve" smooth="yes"/>
      <point x="586" y="116"/>
      <point x="433" y="142"/>
      <point x="258" y="209" type="curve" smooth="yes"/>
      <point x="218" y="224"/>
      <point x="181" y="207"/>
      <point x="162" y="166" type="curve"/>
      <point x="154" y="150" type="line"/>
      <point x="139" y="116"/>
      <point x="158" y="72"/>
      <point x="191" y="59" type="curve" smooth="yes"/>
      <point x="378" y="-18"/>
      <point x="607" y="-41"/>
    </contour>
    <contour>
      <point x="779" y="1006" type="move" name="top"/>
    </contour>
    <contour>
      <point x="779" y="0" type="move" name="bottom"/>
    </contour>
  </outline>
</glyph>
<glyph name="t" format="1">
  <advance width="1185.26413098"/>
  <unicode hex="0074"/>
  <outline>
    <contour>
      <point x="718" y="-41" type="curve" smooth="yes"/>
      <point x="828" y="-41"/>
      <point x="918" y="-26"/>
      <point x="997" y="5" type="curve" smooth="yes"/>
      <point x="1038" y="21"/>
      <point x="1060" y="36"/>
      <point x="1048" y="78" type="curve" smooth="yes"/>
      <point x="1039" y="110" type="line" smooth="yes"/>
      <point x="1029" y="145"/>
      <point x="1022" y="167"/>
      <point x="965" y="148" type="curve" smooth="yes"/>
      <point x="904" y="128"/>
      <point x="830" y="111"/>
      <point x="761" y="111" type="curve" smooth="yes"/>
      <point x="610" y="111"/>
      <point x="535" y="167"/>
      <point x="535" y="305" type="curve" smooth="yes"/>
      <point x="535" y="821" type="line" smooth="yes"/>
      <point x="535" y="841"/>
      <point x="542" y="848"/>
      <point x="562" y="848" type="curve" smooth="yes"/>
      <point x="944" y="848" type="line" smooth="yes"/>
      <point x="987" y="848"/>
      <point x="1011" y="872"/>
      <point x="1011" y="915" type="curve" smooth="yes"/>
      <point x="1011" y="939" type="line" smooth="yes"/>
      <point x="1011" y="982"/>
      <point x="987" y="1006"/>
      <point x="944" y="1006" type="curve" smooth="yes"/>
      <point x="562" y="1006" type="line" smooth="yes"/>
      <point x="542" y="1006"/>
      <point x="535" y="1013"/>
      <point x="535" y="1033" type="curve" smooth="yes"/>
      <point x="535" y="1408" type="line" smooth="yes"/>
      <point x="535" y="1451"/>
      <point x="511" y="1475"/>
      <point x="468" y="1475" type="curve" smooth="yes"/>
      <point x="394" y="1475" type="line" smooth="yes"/>
      <point x="351" y="1475"/>
      <point x="335" y="1450"/>
      <point x="327" y="1408" type="curve"/>
      <point x="307" y="1033" type="line"/>
      <point x="307" y="1013"/>
      <point x="300" y="1006"/>
      <point x="280" y="1006" type="curve" smooth="yes"/>
      <point x="150" y="1006" type="line" smooth="yes"/>
      <point x="107" y="1006"/>
      <point x="83" y="982"/>
      <point x="83" y="939" type="curve" smooth="yes"/>
      <point x="83" y="915" type="line" smooth="yes"/>
      <point x="83" y="872"/>
      <point x="107" y="848"/>
      <point x="150" y="848" type="curve" smooth="yes"/>
      <point x="280" y="848" type="line" smooth="yes"/>
      <point x="300" y="848"/>
      <point x="307" y="841"/>
      <point x="307" y="821" type="curve" smooth="yes"/>
      <point x="307" y="335" type="line" smooth="yes"/>
      <point x="307" y="108"/>
      <point x="434" y="-41"/>
    </contour>
    <contour>
      <point x="576" y="503" type="move" name="center"/>
    </contour>
    <contour>
      <point x="576" y="0" type="move" name="bottom"/>
    </contour>
  </outline>
</glyph>
<glyph name="v" format="1">
  <advance width="1536"/>
  <unicode hex="0076"/>
  <outline>
    <contour>
      <point x="723" y="1" type="curve" smooth="yes"/>
      <point x="833" y="1" type="line" smooth="yes"/>
      <point x="873" y="1"/>
      <point x="911" y="27"/>
      <point x="939" y="67" type="curve"/>
      <point x="1420" y="939" type="line"/>
      <point x="1432" y="957"/>
      <point x="1438" y="971"/>
      <point x="1438" y="982" type="curve" smooth="yes"/>
      <point x="1438" y="998"/>
      <point x="1425" y="1006"/>
      <point x="1400" y="1006" type="curve" smooth="yes"/>
      <point x="1276" y="1006" type="line" smooth="yes"/>
      <point x="1233" y="1006"/>
      <point x="1205" y="985"/>
      <point x="1182" y="939" type="curve" smooth="yes"/>
      <point x="797" y="175" type="line" smooth="yes"/>
      <point x="794" y="169"/>
      <point x="789" y="166"/>
      <point x="785" y="166" type="curve" smooth="yes"/>
      <point x="780" y="166"/>
      <point x="775" y="169"/>
      <point x="772" y="175" type="curve" smooth="yes"/>
      <point x="348" y="939" type="line" smooth="yes"/>
      <point x="324" y="982"/>
      <point x="307" y="1006"/>
      <point x="264" y="1006" type="curve" smooth="yes"/>
      <point x="140" y="1006" type="line" smooth="yes"/>
      <point x="112" y="1006"/>
      <point x="98" y="996"/>
      <point x="98" y="977" type="curve" smooth="yes"/>
      <point x="98" y="967"/>
      <point x="102" y="954"/>
      <point x="110" y="939" type="curve" smooth="yes"/>
      <point x="627" y="67" type="line" smooth="yes"/>
      <point x="650" y="27"/>
      <point x="684" y="1"/>
    </contour>
  </outline>
</glyph>
<glyph name="w" format="1">
  <advance width="2510"/>
  <unicode hex="0077"/>
  <outline>
    <contour>
      <point x="688" y="0" type="curve" smooth="yes"/>
      <point x="806" y="0" type="line" smooth="yes"/>
      <point x="846" y="0"/>
      <point x="891" y="23"/>
      <point x="912" y="67" type="curve" smooth="yes"/>
      <point x="1245" y="781" type="line" smooth="yes"/>
      <point x="1246" y="784"/>
      <point x="1251" y="788"/>
      <point x="1256" y="788" type="curve" smooth="yes"/>
      <point x="1260" y="788"/>
      <point x="1263" y="787"/>
      <point x="1266" y="781" type="curve" smooth="yes"/>
      <point x="1628" y="67" type="line" smooth="yes"/>
      <point x="1649" y="26"/>
      <point x="1685" y="0"/>
      <point x="1724" y="0" type="curve" smooth="yes"/>
      <point x="1844" y="0" type="line" smooth="yes"/>
      <point x="1884" y="0"/>
      <point x="1929" y="23"/>
      <point x="1950" y="67" type="curve" smooth="yes"/>
      <point x="2375" y="939" type="line"/>
      <point x="2387" y="957"/>
      <point x="2393" y="971"/>
      <point x="2393" y="982" type="curve" smooth="yes"/>
      <point x="2393" y="998"/>
      <point x="2380" y="1006"/>
      <point x="2355" y="1006" type="curve" smooth="yes"/>
      <point x="2231" y="1006" type="line" smooth="yes"/>
      <point x="2188" y="1006"/>
      <point x="2158" y="986"/>
      <point x="2137" y="939" type="curve" smooth="yes"/>
      <point x="1801" y="183" type="line" smooth="yes"/>
      <point x="1800" y="180"/>
      <point x="1794" y="175"/>
      <point x="1788" y="175" type="curve" smooth="yes"/>
      <point x="1784" y="175"/>
      <point x="1780" y="177"/>
      <point x="1777" y="183" type="curve" smooth="yes"/>
      <point x="1383" y="939" type="line" smooth="yes"/>
      <point x="1361" y="980"/>
      <point x="1344" y="1006"/>
      <point x="1307" y="1006" type="curve" smooth="yes"/>
      <point x="1215" y="1006" type="line" smooth="yes"/>
      <point x="1172" y="1006"/>
      <point x="1143" y="986"/>
      <point x="1121" y="939" type="curve" smooth="yes"/>
      <point x="766" y="183" type="line" smooth="yes"/>
      <point x="763" y="177"/>
      <point x="759" y="173"/>
      <point x="754" y="173" type="curve" smooth="yes"/>
      <point x="750" y="173"/>
      <point x="746" y="176"/>
      <point x="742" y="183" type="curve" smooth="yes"/>
      <point x="367" y="939" type="line" smooth="yes"/>
      <point x="345" y="983"/>
      <point x="326" y="1006"/>
      <point x="283" y="1006" type="curve" smooth="yes"/>
      <point x="159" y="1006" type="line" smooth="yes"/>
      <point x="131" y="1006"/>
      <point x="117" y="996"/>
      <point x="117" y="977" type="curve" smooth="yes"/>
      <point x="117" y="967"/>
      <point x="121" y="954"/>
      <point x="129" y="939" type="curve" smooth="yes"/>
      <point x="592" y="67" type="line"/>
      <point x="615" y="27"/>
      <point x="649" y="0"/>
    </contour>
    <contour>
      <point x="1258" y="1006" type="move" name="top"/>
    </contour>
  </outline>
</glyph>
<glyph name="x" format="1">
  <advance width="1712"/>
  <unicode hex="0078"/>
  <outline>
    <contour>
      <point x="156" y="0" type="curve" smooth="yes"/>
      <point x="285" y="0" type="line" smooth="yes"/>
      <point x="332" y="0"/>
      <point x="386" y="18"/>
      <point x="423" y="47" type="curve" smooth="yes"/>
      <point x="496" y="103"/>
      <point x="655" y="229"/>
      <point x="837" y="375" type="curve"/>
      <point x="848" y="380"/>
      <point x="856" y="381"/>
      <point x="861" y="381" type="curve" smooth="yes"/>
      <point x="869" y="381"/>
      <point x="872" y="378"/>
      <point x="876" y="375" type="curve" smooth="yes"/>
      <point x="1058" y="228"/>
      <point x="1218" y="98"/>
      <point x="1277" y="50" type="curve" smooth="yes"/>
      <point x="1313" y="21"/>
      <point x="1365" y="0"/>
      <point x="1412" y="0" type="curve" smooth="yes"/>
      <point x="1549" y="0" type="line" smooth="yes"/>
      <point x="1566" y="0"/>
      <point x="1577" y="14"/>
      <point x="1577" y="28" type="curve" smooth="yes"/>
      <point x="1577" y="35"/>
      <point x="1574" y="42"/>
      <point x="1567" y="48" type="curve" smooth="yes"/>
      <point x="1352" y="219"/>
      <point x="1167" y="368"/>
      <point x="1011" y="493" type="curve"/>
      <point x="1007" y="499"/>
      <point x="1006" y="504"/>
      <point x="1006" y="507" type="curve" smooth="yes"/>
      <point x="1006" y="511"/>
      <point x="1008" y="513"/>
      <point x="1011" y="515" type="curve" smooth="yes"/>
      <point x="1211" y="678"/>
      <point x="1418" y="845"/>
      <point x="1560" y="960" type="curve" smooth="yes"/>
      <point x="1567" y="965"/>
      <point x="1571" y="973"/>
      <point x="1571" y="981" type="curve" smooth="yes"/>
      <point x="1571" y="994"/>
      <point x="1561" y="1006"/>
      <point x="1545" y="1006" type="curve" smooth="yes"/>
      <point x="1406" y="1006" type="line" smooth="yes"/>
      <point x="1359" y="1006"/>
      <point x="1336" y="987"/>
      <point x="1299" y="958" type="curve" smooth="yes"/>
      <point x="1231" y="903"/>
      <point x="1074" y="777"/>
      <point x="874" y="622" type="curve"/>
      <point x="867" y="619"/>
      <point x="863" y="618"/>
      <point x="860" y="618" type="curve" smooth="yes"/>
      <point x="855" y="618"/>
      <point x="852" y="620"/>
      <point x="850" y="622" type="curve" smooth="yes"/>
      <point x="644" y="787"/>
      <point x="505" y="899"/>
      <point x="434" y="956" type="curve" smooth="yes"/>
      <point x="397" y="985"/>
      <point x="369" y="1006"/>
      <point x="322" y="1006" type="curve" smooth="yes"/>
      <point x="179" y="1006" type="line" smooth="yes"/>
      <point x="162" y="1006"/>
      <point x="151" y="992"/>
      <point x="151" y="978" type="curve" smooth="yes"/>
      <point x="151" y="971"/>
      <point x="154" y="963"/>
      <point x="161" y="958" type="curve" smooth="yes"/>
      <point x="241" y="892"/>
      <point x="474" y="702"/>
      <point x="709" y="511" type="curve"/>
      <point x="712" y="506"/>
      <point x="714" y="502"/>
      <point x="714" y="499" type="curve" smooth="yes"/>
      <point x="714" y="495"/>
      <point x="711" y="494"/>
      <point x="709" y="492" type="curve" smooth="yes"/>
      <point x="528" y="349"/>
      <point x="328" y="193"/>
      <point x="140" y="46" type="curve" smooth="yes"/>
      <point x="133" y="41"/>
      <point x="130" y="33"/>
      <point x="130" y="26" type="curve" smooth="yes"/>
      <point x="130" y="13"/>
      <point x="140" y="0"/>
    </contour>
  </outline>
</glyph>
<glyph name="y" format="1">
  <advance width="1554"/>
  <unicode hex="0079"/>
  <outline>
    <contour>
      <point x="437" y="-443" type="curve" smooth="yes"/>
      <point x="695" y="-443"/>
      <point x="774" y="-321"/>
      <point x="836" y="-210" type="curve" smooth="yes"/>
      <point x="1471" y="936" type="line" smooth="yes"/>
      <point x="1475" y="943"/>
      <point x="1475" y="950"/>
      <point x="1475" y="957" type="curve" smooth="yes"/>
      <point x="1474" y="983"/>
      <point x="1452" y="1006"/>
      <point x="1423" y="1006" type="curve" smooth="yes"/>
      <point x="1316" y="1006" type="line"/>
      <point x="1270" y="1005"/>
      <point x="1242" y="991"/>
      <point x="1216" y="933" type="curve" smooth="yes"/>
      <point x="1216" y="932"/>
      <point x="861" y="251"/>
      <point x="836" y="205" type="curve" smooth="yes"/>
      <point x="828" y="191"/>
      <point x="823" y="185"/>
      <point x="815" y="185" type="curve" smooth="yes"/>
      <point x="805" y="185"/>
      <point x="798" y="192"/>
      <point x="795" y="198" type="curve" smooth="yes"/>
      <point x="369" y="939" type="line" smooth="yes"/>
      <point x="345" y="982"/>
      <point x="328" y="1006"/>
      <point x="285" y="1006" type="curve" smooth="yes"/>
      <point x="161" y="1006" type="line" smooth="yes"/>
      <point x="133" y="1006"/>
      <point x="119" y="996"/>
      <point x="119" y="977" type="curve" smooth="yes"/>
      <point x="119" y="967"/>
      <point x="122" y="954"/>
      <point x="131" y="939" type="curve" smooth="yes"/>
      <point x="682" y="14" type="line"/>
      <point x="712" y="-36" type="line"/>
      <point x="680" y="-96"/>
      <point x="661" y="-134"/>
      <point x="661" y="-134" type="curve"/>
      <point x="600" y="-256"/>
      <point x="505" y="-278"/>
      <point x="448" y="-279" type="curve"/>
      <point x="430" y="-279" type="line" smooth="yes"/>
      <point x="399" y="-279"/>
      <point x="299" y="-266"/>
      <point x="248" y="-249" type="curve" smooth="yes"/>
      <point x="241" y="-247"/>
      <point x="233" y="-245"/>
      <point x="226" y="-245" type="curve" smooth="yes"/>
      <point x="201" y="-245"/>
      <point x="175" y="-257"/>
      <point x="166" y="-280" type="curve"/>
      <point x="158" y="-313" type="line"/>
      <point x="154" y="-325"/>
      <point x="152" y="-337"/>
      <point x="153" y="-349" type="curve" smooth="yes"/>
      <point x="154" y="-378"/>
      <point x="160" y="-384"/>
      <point x="181" y="-394" type="curve" smooth="yes"/>
      <point x="242" y="-424"/>
      <point x="335" y="-443"/>
    </contour>
    <contour>
      <point x="797" y="1006" type="move" name="top"/>
    </contour>
  </outline>
</glyph>
<glyph name="z" format="1">
  <advance width="1463"/>
  <unicode hex="007A"/>
  <outline>
    <contour>
      <point x="209" y="0" type="curve" smooth="yes"/>
      <point x="1290" y="0" type="line" smooth="yes"/>
      <point x="1310" y="0"/>
      <point x="1327" y="17"/>
      <point x="1327" y="37" type="curve" smooth="yes"/>
      <point x="1327" y="121" type="line" smooth="yes"/>
      <point x="1327" y="141"/>
      <point x="1310" y="158"/>
      <point x="1290" y="158" type="curve" smooth="yes"/>
      <point x="451" y="158" type="line"/>
      <point x="1259" y="807" type="line" smooth="yes"/>
      <point x="1276" y="821"/>
      <point x="1288" y="845"/>
      <point x="1288" y="868" type="curve" smooth="yes"/>
      <point x="1288" y="969" type="line" smooth="yes"/>
      <point x="1288" y="989"/>
      <point x="1241" y="1006"/>
      <point x="1221" y="1006" type="curve" smooth="yes"/>
      <point x="183" y="1006" type="line" smooth="yes"/>
      <point x="163" y="1006"/>
      <point x="146" y="989"/>
      <point x="146" y="969" type="curve" smooth="yes"/>
      <point x="146" y="885" type="line" smooth="yes"/>
      <point x="146" y="865"/>
      <point x="163" y="848"/>
      <point x="183" y="848" type="curve" smooth="yes"/>
      <point x="1024" y="848" type="line"/>
      <point x="171" y="181" type="line"/>
      <point x="154" y="170"/>
      <point x="142" y="144"/>
      <point x="142" y="121" type="curve" smooth="yes"/>
      <point x="142" y="37" type="line" smooth="yes"/>
      <point x="142" y="17"/>
      <point x="189" y="0"/>
    </contour>
    <contour>
      <point x="732" y="1006" type="move" name="top"/>
    </contour>
  </outline>
</glyph>
<glyph name="braceleft" format="1">
  <advance width="935"/>
  <unicode hex="007B"/>
  <outline>
    <contour>
      <point x="686" y="-119" type="curve" smooth="yes"/>
      <point x="736" y="-119" type="line" smooth="yes"/>
      <point x="778" y="-119"/>
      <point x="813" y="-104"/>
      <point x="813" y="-62" type="curve" smooth="yes"/>
      <point x="813" y="-12" type="line" smooth="yes"/>
      <point x="813" y="40"/>
      <point x="789" y="52"/>
      <point x="737" y="52" type="curve" smooth="yes"/>
      <point x="624" y="52"/>
      <point x="587" y="73"/>
      <point x="587" y="249" type="curve" smooth="yes"/>
      <point x="587" y="257" type="line" smooth="yes"/>
      <point x="587" y="419"/>
      <point x="586" y="671"/>
      <point x="460" y="699" type="curve" smooth="yes"/>
      <point x="453" y="701"/>
      <point x="450" y="706"/>
      <point x="450" y="712" type="curve" smooth="yes"/>
      <point x="450" y="718"/>
      <point x="453" y="723"/>
      <point x="460" y="725" type="curve" smooth="yes"/>
      <point x="586" y="753"/>
      <point x="587" y="1005"/>
      <point x="587" y="1167" type="curve" smooth="yes"/>
      <point x="587" y="1175" type="line" smooth="yes"/>
      <point x="587" y="1351"/>
      <point x="624" y="1372"/>
      <point x="737" y="1372" type="curve" smooth="yes"/>
      <point x="789" y="1372"/>
      <point x="813" y="1384"/>
      <point x="813" y="1436" type="curve" smooth="yes"/>
      <point x="813" y="1486" type="line" smooth="yes"/>
      <point x="813" y="1528"/>
      <point x="778" y="1543"/>
      <point x="736" y="1543" type="curve" smooth="yes"/>
      <point x="686" y="1543" type="line" smooth="yes"/>
      <point x="458" y="1543"/>
      <point x="412" y="1430"/>
      <point x="412" y="1206" type="curve" smooth="yes"/>
      <point x="412" y="880"/>
      <point x="374" y="817"/>
      <point x="279" y="817" type="curve" smooth="yes"/>
      <point x="217" y="817" type="line" smooth="yes"/>
      <point x="148" y="817"/>
      <point x="125" y="802"/>
      <point x="125" y="712" type="curve" smooth="yes"/>
      <point x="125" y="622"/>
      <point x="148" y="607"/>
      <point x="217" y="607" type="curve" smooth="yes"/>
      <point x="279" y="607" type="line" smooth="yes"/>
      <point x="374" y="607"/>
      <point x="412" y="544"/>
      <point x="412" y="218" type="curve" smooth="yes"/>
      <point x="412" y="-6"/>
      <point x="458" y="-119"/>
    </contour>
  </outline>
</glyph>
<glyph name="currency" format="1">
  <advance width="1309"/>
  <unicode hex="00A4"/>
  <outline>
    <contour>
      <point x="654" y="426" type="curve" smooth="yes"/>
      <point x="788" y="426"/>
      <point x="868" y="459"/>
      <point x="954" y="515" type="curve"/>
      <point x="985" y="484" type="line" smooth="yes"/>
      <point x="1005" y="463"/>
      <point x="1023" y="445"/>
      <point x="1042" y="445" type="curve" smooth="yes"/>
      <point x="1050" y="445"/>
      <point x="1058" y="449"/>
      <point x="1067" y="457" type="curve" smooth="yes"/>
      <point x="1099" y="490" type="line" smooth="yes"/>
      <point x="1109" y="500"/>
      <point x="1113" y="509"/>
      <point x="1113" y="518" type="curve" smooth="yes"/>
      <point x="1113" y="537"/>
      <point x="1096" y="554"/>
      <point x="1075" y="575" type="curve" smooth="yes"/>
      <point x="1051" y="599" type="line"/>
      <point x="1128" y="689"/>
      <point x="1168" y="805"/>
      <point x="1168" y="931" type="curve" smooth="yes"/>
      <point x="1168" y="1059"/>
      <point x="1127" y="1177"/>
      <point x="1048" y="1268" type="curve"/>
      <point x="1075" y="1295" type="line" smooth="yes"/>
      <point x="1096" y="1316"/>
      <point x="1114" y="1334"/>
      <point x="1114" y="1352" type="curve" smooth="yes"/>
      <point x="1114" y="1360"/>
      <point x="1110" y="1368"/>
      <point x="1102" y="1377" type="curve" smooth="yes"/>
      <point x="1069" y="1409" type="line" smooth="yes"/>
      <point x="1059" y="1419"/>
      <point x="1050" y="1423"/>
      <point x="1041" y="1423" type="curve" smooth="yes"/>
      <point x="1022" y="1423"/>
      <point x="1005" y="1406"/>
      <point x="984" y="1385" type="curve" smooth="yes"/>
      <point x="951" y="1352" type="line"/>
      <point x="866" y="1407"/>
      <point x="786" y="1440"/>
      <point x="654" y="1440" type="curve" smooth="yes"/>
      <point x="522" y="1440"/>
      <point x="443" y="1407"/>
      <point x="358" y="1352" type="curve"/>
      <point x="324" y="1386" type="line" smooth="yes"/>
      <point x="304" y="1406"/>
      <point x="287" y="1423"/>
      <point x="268" y="1423" type="curve" smooth="yes"/>
      <point x="259" y="1423"/>
      <point x="249" y="1419"/>
      <point x="239" y="1409" type="curve" smooth="yes"/>
      <point x="207" y="1377" type="line" smooth="yes"/>
      <point x="198" y="1369"/>
      <point x="194" y="1360"/>
      <point x="194" y="1352" type="curve" smooth="yes"/>
      <point x="194" y="1334"/>
      <point x="212" y="1316"/>
      <point x="233" y="1295" type="curve" smooth="yes"/>
      <point x="260" y="1268" type="line"/>
      <point x="181" y="1177"/>
      <point x="140" y="1059"/>
      <point x="140" y="931" type="curve" smooth="yes"/>
      <point x="140" y="805"/>
      <point x="180" y="688"/>
      <point x="258" y="599" type="curve"/>
      <point x="233" y="574" type="line" smooth="yes"/>
      <point x="213" y="554"/>
      <point x="196" y="537"/>
      <point x="196" y="518" type="curve" smooth="yes"/>
      <point x="196" y="509"/>
      <point x="200" y="499"/>
      <point x="210" y="489" type="curve" smooth="yes"/>
      <point x="242" y="457" type="line" smooth="yes"/>
      <point x="250" y="448"/>
      <point x="259" y="445"/>
      <point x="267" y="445" type="curve" smooth="yes"/>
      <point x="285" y="445"/>
      <point x="303" y="463"/>
      <point x="324" y="484" type="curve" smooth="yes"/>
      <point x="355" y="515" type="line"/>
      <point x="440" y="459"/>
      <point x="520" y="426"/>
    </contour>
    <contour>
      <point x="654" y="530" type="curve" smooth="yes"/>
      <point x="365" y="530"/>
      <point x="257" y="745"/>
      <point x="257" y="931" type="curve" smooth="yes"/>
      <point x="257" y="1126"/>
      <point x="365" y="1335"/>
      <point x="654" y="1335" type="curve" smooth="yes"/>
      <point x="943" y="1335"/>
      <point x="1051" y="1126"/>
      <point x="1051" y="931" type="curve" smooth="yes"/>
      <point x="1051" y="745"/>
      <point x="943" y="530"/>
    </contour>
  </outline>
</glyph>
<glyph name="yen" format="1">
  <advance width="1686"/>
  <unicode hex="00A5"/>
  <outline>
    <contour>
      <point x="795" y="0" type="curve" smooth="yes"/>
      <point x="889" y="0" type="line" smooth="yes"/>
      <point x="932" y="0"/>
      <point x="956" y="24"/>
      <point x="956" y="67" type="curve" smooth="yes"/>
      <point x="956" y="233" type="line"/>
      <point x="1225" y="233" type="line" smooth="yes"/>
      <point x="1268" y="233"/>
      <point x="1272" y="247"/>
      <point x="1272" y="290" type="curve" smooth="yes"/>
      <point x="1272" y="321" type="line" smooth="yes"/>
      <point x="1272" y="364"/>
      <point x="1268" y="378"/>
      <point x="1225" y="378" type="curve" smooth="yes"/>
      <point x="956" y="378" type="line"/>
      <point x="956" y="572" type="line"/>
      <point x="1257" y="572" type="line" smooth="yes"/>
      <point x="1300" y="572"/>
      <point x="1304" y="586"/>
      <point x="1304" y="629" type="curve" smooth="yes"/>
      <point x="1304" y="660" type="line" smooth="yes"/>
      <point x="1304" y="703"/>
      <point x="1300" y="717"/>
      <point x="1257" y="717" type="curve" smooth="yes"/>
      <point x="956" y="717" type="line"/>
      <point x="1577" y="1371" type="line"/>
      <point x="1597" y="1389"/>
      <point x="1604" y="1407"/>
      <point x="1604" y="1418" type="curve" smooth="yes"/>
      <point x="1604" y="1431"/>
      <point x="1593" y="1438"/>
      <point x="1570" y="1438" type="curve" smooth="yes"/>
      <point x="1426" y="1438" type="line" smooth="yes"/>
      <point x="1383" y="1438"/>
      <point x="1338" y="1414"/>
      <point x="1299" y="1371" type="curve" smooth="yes"/>
      <point x="847" y="882" type="line"/>
      <point x="387" y="1371" type="line"/>
      <point x="344" y="1414"/>
      <point x="297" y="1438"/>
      <point x="254" y="1438" type="curve" smooth="yes"/>
      <point x="110" y="1438" type="line" smooth="yes"/>
      <point x="88" y="1438"/>
      <point x="77" y="1432"/>
      <point x="77" y="1420" type="curve" smooth="yes"/>
      <point x="77" y="1409"/>
      <point x="87" y="1391"/>
      <point x="109" y="1371" type="curve"/>
      <point x="724" y="717" type="line"/>
      <point x="423" y="717" type="line" smooth="yes"/>
      <point x="380" y="717"/>
      <point x="376" y="703"/>
      <point x="376" y="660" type="curve" smooth="yes"/>
      <point x="376" y="629" type="line" smooth="yes"/>
      <point x="376" y="586"/>
      <point x="380" y="572"/>
      <point x="423" y="572" type="curve" smooth="yes"/>
      <point x="728" y="572" type="line"/>
      <point x="728" y="378" type="line"/>
      <point x="487" y="378" type="line" smooth="yes"/>
      <point x="444" y="378"/>
      <point x="440" y="364"/>
      <point x="440" y="321" type="curve" smooth="yes"/>
      <point x="440" y="290" type="line" smooth="yes"/>
      <point x="440" y="247"/>
      <point x="444" y="233"/>
      <point x="487" y="233" type="curve" smooth="yes"/>
      <point x="728" y="233" type="line"/>
      <point x="728" y="67" type="line" smooth="yes"/>
      <point x="728" y="24"/>
      <point x="752" y="0"/>
    </contour>
  </outline>
</glyph>
<glyph name="brokenbar" format="1">
  <advance width="512"/>
  <unicode hex="00A6"/>
  <outline>
    <contour>
      <point x="217" y="-150" type="curve" smooth="yes"/>
      <point x="295" y="-150" type="line" smooth="yes"/>
      <point x="338" y="-150"/>
      <point x="352" y="-116"/>
      <point x="352" y="-73" type="curve" smooth="yes"/>
      <point x="352" y="509" type="line" smooth="yes"/>
      <point x="352" y="552"/>
      <point x="338" y="586"/>
      <point x="295" y="586" type="curve" smooth="yes"/>
      <point x="217" y="586" type="line" smooth="yes"/>
      <point x="174" y="586"/>
      <point x="160" y="552"/>
      <point x="160" y="509" type="curve" smooth="yes"/>
      <point x="160" y="-73" type="line" smooth="yes"/>
      <point x="160" y="-116"/>
      <point x="174" y="-150"/>
    </contour>
    <contour>
      <point x="217" y="819" type="curve" smooth="yes"/>
      <point x="295" y="819" type="line" smooth="yes"/>
      <point x="338" y="819"/>
      <point x="352" y="853"/>
      <point x="352" y="896" type="curve" smooth="yes"/>
      <point x="352" y="1478" type="line" smooth="yes"/>
      <point x="352" y="1521"/>
      <point x="338" y="1555"/>
      <point x="295" y="1555" type="curve" smooth="yes"/>
      <point x="217" y="1555" type="line" smooth="yes"/>
      <point x="174" y="1555"/>
      <point x="160" y="1521"/>
      <point x="160" y="1478" type="curve" smooth="yes"/>
      <point x="160" y="896" type="line" smooth="yes"/>
      <point x="160" y="853"/>
      <point x="174" y="819"/>
    </contour>
  </outline>
</glyph>
<glyph name="copyright" format="1">
  <advance width="1899"/>
  <unicode hex="00A9"/>
  <outline>
    <contour>
      <point x="970" y="325" type="curve" smooth="yes"/>
      <point x="1078" y="325"/>
      <point x="1189" y="351"/>
      <point x="1271" y="389" type="curve" smooth="yes"/>
      <point x="1291" y="398"/>
      <point x="1304" y="429"/>
      <point x="1295" y="457" type="curve"/>
      <point x="1292" y="471"/>
      <point x="1287" y="484"/>
      <point x="1283" y="498" type="curve" smooth="yes"/>
      <point x="1277" y="523"/>
      <point x="1256" y="538"/>
      <point x="1236" y="528" type="curve"/>
      <point x="1165" y="501"/>
      <point x="1067" y="476"/>
      <point x="978" y="476" type="curve" smooth="yes"/>
      <point x="821" y="476"/>
      <point x="687" y="545"/>
      <point x="687" y="725" type="curve" smooth="yes"/>
      <point x="687" y="893"/>
      <point x="821" y="966"/>
      <point x="983" y="966" type="curve" smooth="yes"/>
      <point x="1067" y="966"/>
      <point x="1161" y="939"/>
      <point x="1228" y="910" type="curve"/>
      <point x="1250" y="899"/>
      <point x="1273" y="917"/>
      <point x="1282" y="946" type="curve" smooth="yes"/>
      <point x="1285" y="959"/>
      <point x="1293" y="980"/>
      <point x="1293" y="997" type="curve" smooth="yes"/>
      <point x="1293" y="1019"/>
      <point x="1286" y="1038"/>
      <point x="1266" y="1048" type="curve"/>
      <point x="1186" y="1093"/>
      <point x="1069" y="1122"/>
      <point x="953" y="1122" type="curve" smooth="yes"/>
      <point x="758" y="1122"/>
      <point x="508" y="1011"/>
      <point x="508" y="726" type="curve" smooth="yes"/>
      <point x="508" y="444"/>
      <point x="737" y="325"/>
    </contour>
    <contour>
      <point x="952" y="81" type="curve" smooth="yes"/>
      <point x="471" y="81"/>
      <point x="291" y="420"/>
      <point x="291" y="713" type="curve" smooth="yes"/>
      <point x="291" y="1018"/>
      <point x="471" y="1349"/>
      <point x="952" y="1349" type="curve" smooth="yes"/>
      <point x="1432" y="1349"/>
      <point x="1612" y="1018"/>
      <point x="1612" y="713" type="curve" smooth="yes"/>
      <point x="1612" y="420"/>
      <point x="1432" y="81"/>
    </contour>
    <contour>
      <point x="949" y="-41" type="curve" smooth="yes"/>
      <point x="1493" y="-41"/>
      <point x="1765" y="318"/>
      <point x="1765" y="717" type="curve" smooth="yes"/>
      <point x="1765" y="1116"/>
      <point x="1493" y="1475"/>
      <point x="949" y="1475" type="curve" smooth="yes"/>
      <point x="405" y="1475"/>
      <point x="133" y="1116"/>
      <point x="133" y="717" type="curve" smooth="yes"/>
      <point x="133" y="318"/>
      <point x="405" y="-41"/>
    </contour>
  </outline>
</glyph>
<glyph name="ordfeminine" format="1">
  <advance width="1688"/>
  <unicode hex="00AA"/>
  <outline>
    <contour>
      <point x="509.34" y="533.74" type="curve" smooth="yes"/>
      <point x="821.52" y="533.74"/>
      <point x="995.24" y="640.38"/>
      <point x="1058.02" y="775.4" type="curve" smooth="yes"/>
      <point x="1060.6" y="781.42"/>
      <point x="1064.9" y="802.92"/>
      <point x="1069.2" y="802.92" type="curve" smooth="yes"/>
      <point x="1074.36" y="802.92"/>
      <point x="1075.22" y="788.3"/>
      <point x="1078.66" y="770.24" type="curve"/>
      <point x="1082.96" y="754.76"/>
      <point x="1087.26" y="713.48"/>
      <point x="1093.28" y="672.2" type="curve" smooth="yes"/>
      <point x="1103.6" y="605.12"/>
      <point x="1116.5" y="569.0"/>
      <point x="1150.9" y="569.0" type="curve" smooth="yes"/>
      <point x="1174.98" y="569.0" type="line" smooth="yes"/>
      <point x="1205.08" y="569.0"/>
      <point x="1218.84" y="595.66"/>
      <point x="1218.84" y="648.98" type="curve" smooth="yes"/>
      <point x="1218.84" y="1060.06" type="line" smooth="yes"/>
      <point x="1218.84" y="1343.0"/>
      <point x="1085.54" y="1473.72"/>
      <point x="647.8" y="1473.72" type="curve" smooth="yes"/>
      <point x="297.78" y="1473.72"/>
      <point x="132.66" y="1417.82"/>
      <point x="53.54" y="1296.56" type="curve" smooth="yes"/>
      <point x="47.52" y="1287.1"/>
      <point x="44.08" y="1274.2"/>
      <point x="44.08" y="1258.72" type="curve" smooth="yes"/>
      <point x="44.08" y="1244.1"/>
      <point x="56.98" y="1228.62"/>
      <point x="71.6" y="1226.9" type="curve"/>
      <point x="154.16" y="1212.28" type="line"/>
      <point x="161.9" y="1211.42"/>
      <point x="164.48" y="1210.56"/>
      <point x="169.64" y="1210.56" type="curve" smooth="yes"/>
      <point x="187.7" y="1210.56"/>
      <point x="216.94" y="1238.08"/>
      <point x="235.0" y="1257.0" type="curve" smooth="yes"/>
      <point x="313.26" y="1336.98"/>
      <point x="577.28" y="1343.0"/>
      <point x="649.52" y="1343.0" type="curve" smooth="yes"/>
      <point x="954.82" y="1343.0"/>
      <point x="1021.9" y="1266.46"/>
      <point x="1021.9" y="1133.16" type="curve" smooth="yes"/>
      <point x="1021.9" y="1120.26" type="line" smooth="yes"/>
      <point x="1021.9" y="1090.16"/>
      <point x="4.52" y="1146.92"/>
      <point x="10.54" y="773.68" type="curve" smooth="yes"/>
      <point x="13.12" y="622.32"/>
      <point x="172.22" y="533.74"/>
    </contour>
    <contour>
      <point x="520.52" y="657.58" type="curve" smooth="yes"/>
      <point x="288.32" y="657.58"/>
      <point x="216.08" y="703.16"/>
      <point x="214.36" y="784.86" type="curve" smooth="yes"/>
      <point x="211.78" y="898.38"/>
      <point x="345.08" y="956.0"/>
      <point x="854.2" y="990.4" type="curve"/>
      <point x="858.5" y="991.26"/>
      <point x="1012.44" y="999.86"/>
      <point x="1015.02" y="999.86" type="curve" smooth="yes"/>
      <point x="1024.48" y="999.86"/>
      <point x="1024.48" y="996.42"/>
      <point x="1024.48" y="984.38" type="curve" smooth="yes"/>
      <point x="1024.48" y="747.88"/>
      <point x="785.4" y="657.58"/>
    </contour>
  </outline>
</glyph>
<glyph name="logicalnot" format="1">
  <advance width="1255"/>
  <unicode hex="00AC"/>
  <outline>
    <contour>
      <point x="950" y="238" type="curve" smooth="yes"/>
      <point x="1060" y="238" type="line" smooth="yes"/>
      <point x="1103" y="238"/>
      <point x="1117" y="272"/>
      <point x="1117" y="315" type="curve" smooth="yes"/>
      <point x="1117" y="725" type="line" smooth="yes"/>
      <point x="1117" y="768"/>
      <point x="1083" y="792"/>
      <point x="1040" y="792" type="curve" smooth="yes"/>
      <point x="182" y="792" type="line" smooth="yes"/>
      <point x="139" y="792"/>
      <point x="125" y="778"/>
      <point x="125" y="735" type="curve" smooth="yes"/>
      <point x="125" y="672" type="line" smooth="yes"/>
      <point x="125" y="629"/>
      <point x="139" y="615"/>
      <point x="182" y="615" type="curve" smooth="yes"/>
      <point x="856" y="615" type="line" smooth="yes"/>
      <point x="876" y="615"/>
      <point x="893" y="598"/>
      <point x="893" y="578" type="curve" smooth="yes"/>
      <point x="893" y="315" type="line" smooth="yes"/>
      <point x="893" y="272"/>
      <point x="907" y="238"/>
    </contour>
  </outline>
</glyph>
<glyph name="registered" format="1">
  <advance width="1899"/>
  <unicode hex="00AE"/>
  <outline>
    <contour>
      <point x="598" y="387" type="curve" smooth="yes"/>
      <point x="706" y="387" type="line" smooth="yes"/>
      <point x="724" y="387"/>
      <point x="738" y="403"/>
      <point x="738" y="422" type="curve" smooth="yes"/>
      <point x="738" y="630" type="line" smooth="yes"/>
      <point x="738" y="640"/>
      <point x="746" y="648"/>
      <point x="754" y="648" type="curve" smooth="yes"/>
      <point x="1052" y="648" type="line" smooth="yes"/>
      <point x="1109" y="648"/>
      <point x="1125" y="648"/>
      <point x="1146" y="615" type="curve"/>
      <point x="1179" y="569"/>
      <point x="1189" y="471"/>
      <point x="1201" y="418" type="curve" smooth="yes"/>
      <point x="1206" y="394"/>
      <point x="1216" y="387"/>
      <point x="1242" y="387" type="curve" smooth="yes"/>
      <point x="1348" y="387" type="line" smooth="yes"/>
      <point x="1360" y="387"/>
      <point x="1365" y="397"/>
      <point x="1365" y="409" type="curve" smooth="yes"/>
      <point x="1365" y="419"/>
      <point x="1360" y="444"/>
      <point x="1357" y="472" type="curve" smooth="yes"/>
      <point x="1346" y="589"/>
      <point x="1317" y="668"/>
      <point x="1230" y="688" type="curve" smooth="yes"/>
      <point x="1229" y="688"/>
      <point x="1229" y="689"/>
      <point x="1229" y="690" type="curve" smooth="yes"/>
      <point x="1229" y="691"/>
      <point x="1229" y="692"/>
      <point x="1230" y="692" type="curve" smooth="yes"/>
      <point x="1306" y="705"/>
      <point x="1369" y="755"/>
      <point x="1369" y="853" type="curve" smooth="yes"/>
      <point x="1369" y="1047"/>
      <point x="1203" y="1049"/>
      <point x="992" y="1049" type="curve" smooth="yes"/>
      <point x="598" y="1049" type="line" smooth="yes"/>
      <point x="580" y="1049"/>
      <point x="566" y="1034"/>
      <point x="566" y="1014" type="curve" smooth="yes"/>
      <point x="566" y="422" type="line" smooth="yes"/>
      <point x="566" y="403"/>
      <point x="580" y="387"/>
    </contour>
    <contour>
      <point x="754" y="753" type="line" smooth="yes"/>
      <point x="746" y="753"/>
      <point x="738" y="761"/>
      <point x="738" y="770" type="curve" smooth="yes"/>
      <point x="738" y="917" type="line" smooth="yes"/>
      <point x="738" y="926"/>
      <point x="746" y="934"/>
      <point x="754" y="934" type="curve" smooth="yes"/>
      <point x="1042" y="934" type="line" smooth="yes"/>
      <point x="1144" y="934"/>
      <point x="1205" y="931"/>
      <point x="1205" y="843" type="curve" smooth="yes"/>
      <point x="1205" y="792"/>
      <point x="1184" y="753"/>
      <point x="1118" y="753" type="curve" smooth="yes"/>
    </contour>
    <contour>
      <point x="952" y="81" type="curve" smooth="yes"/>
      <point x="471" y="81"/>
      <point x="291" y="420"/>
      <point x="291" y="713" type="curve" smooth="yes"/>
      <point x="291" y="1018"/>
      <point x="471" y="1349"/>
      <point x="952" y="1349" type="curve" smooth="yes"/>
      <point x="1432" y="1349"/>
      <point x="1612" y="1018"/>
      <point x="1612" y="713" type="curve" smooth="yes"/>
      <point x="1612" y="420"/>
      <point x="1432" y="81"/>
    </contour>
    <contour>
      <point x="949" y="-41" type="curve" smooth="yes"/>
      <point x="1493" y="-41"/>
      <point x="1765" y="318"/>
      <point x="1765" y="717" type="curve" smooth="yes"/>
      <point x="1765" y="1116"/>
      <point x="1493" y="1475"/>
      <point x="949" y="1475" type="curve" smooth="yes"/>
      <point x="405" y="1475"/>
      <point x="133" y="1116"/>
      <point x="133" y="717" type="curve" smooth="yes"/>
      <point x="133" y="318"/>
      <point x="405" y="-41"/>
    </contour>
  </outline>
</glyph>
<glyph name="macron" format="1">
  <advance width="1052"/>
  <unicode hex="00AF"/>
  <outline>
    <contour>
      <point x="185" y="722" type="curve" smooth="yes"/>
      <point x="871" y="722" type="line" smooth="yes"/>
      <point x="914" y="722"/>
      <point x="928" y="746"/>
      <point x="928" y="789" type="curve" smooth="yes"/>
      <point x="928" y="833" type="line" smooth="yes"/>
      <point x="928" y="876"/>
      <point x="914" y="900"/>
      <point x="871" y="900" type="curve" smooth="yes"/>
      <point x="185" y="900" type="line" smooth="yes"/>
      <point x="142" y="900"/>
      <point x="128" y="876"/>
      <point x="128" y="833" type="curve" smooth="yes"/>
      <point x="128" y="789" type="line" smooth="yes"/>
      <point x="128" y="746"/>
      <point x="142" y="722"/>
    </contour>
    <contour>
      <point x="528" y="1006" type="move" name="_top"/>
    </contour>
  </outline>
</glyph>
<glyph name="onehalf" format="1">
  <advance width="3968.25079231"/>
  <unicode hex="00BD"/>
  <outline>
    <contour>
      <point x="2072.33" y="-1.0" type="curve" smooth="yes"/>
      <point x="3162.18" y="-1.0" type="line" smooth="yes"/>
      <point x="3189.16" y="-1.0"/>
      <point x="3199.1" y="6.1"/>
      <point x="3199.1" y="35.92" type="curve" smooth="yes"/>
      <point x="3199.1" y="72.13" type="line" smooth="yes"/>
      <point x="3199.1" y="104.79"/>
      <point x="3186.32" y="117.57"/>
      <point x="3167.86" y="117.57" type="curve" smooth="yes"/>
      <point x="2256.22" y="117.57" type="line" smooth="yes"/>
      <point x="2229.95" y="117.57"/>
      <point x="2205.81" y="132.48"/>
      <point x="2205.81" y="156.62" type="curve" smooth="yes"/>
      <point x="2205.81" y="160.17"/>
      <point x="2206.52" y="164.43"/>
      <point x="2207.94" y="168.69" type="curve" smooth="yes"/>
      <point x="2330.06" y="585.46"/>
      <point x="3228.21" y="192.83"/>
      <point x="3228.21" y="702.61" type="curve" smooth="yes"/>
      <point x="3228.21" y="963.89"/>
      <point x="2964.8" y="1048.38"/>
      <point x="2577.85" y="1048.38" type="curve" smooth="yes"/>
      <point x="2410.29" y="1047.67"/>
      <point x="2153.27" y="986.61"/>
      <point x="2075.88" y="958.92" type="curve"/>
      <point x="2058.13" y="950.4"/>
      <point x="2051.03" y="936.2"/>
      <point x="2051.03" y="909.93" type="curve" smooth="yes"/>
      <point x="2051.03" y="907.09"/>
      <point x="2051.03" y="904.25"/>
      <point x="2073.75" y="856.68" type="curve"/>
      <point x="2077.3" y="841.77"/>
      <point x="2090.08" y="835.38"/>
      <point x="2112.8" y="835.38" type="curve" smooth="yes"/>
      <point x="2122.03" y="835.38"/>
      <point x="2131.26" y="838.22"/>
      <point x="2144.04" y="842.48" type="curve" smooth="yes"/>
      <point x="2160.37" y="848.16"/>
      <point x="2376.21" y="922.71"/>
      <point x="2583.53" y="922.71" type="curve" smooth="yes"/>
      <point x="2966.22" y="922.71"/>
      <point x="3064.91" y="848.87"/>
      <point x="3064.91" y="689.12" type="curve" smooth="yes"/>
      <point x="3064.91" y="349.03"/>
      <point x="2136.23" y="757.99"/>
      <point x="2008.43" y="84.2" type="curve" smooth="yes"/>
      <point x="2007.01" y="76.39"/>
      <point x="2006.3" y="70.0"/>
      <point x="2006.3" y="62.9" type="curve" smooth="yes"/>
      <point x="2006.3" y="23.14"/>
      <point x="2030.44" y="-1.0"/>
    </contour>
    <contour>
      <point x="545.8" y="429.0" type="curve" smooth="yes"/>
      <point x="611.6" y="429.0" type="line" smooth="yes"/>
      <point x="641.7" y="429.0"/>
      <point x="658.5" y="445.8"/>
      <point x="658.5" y="475.9" type="curve" smooth="yes"/>
      <point x="658.5" y="1388.7" type="line" smooth="yes"/>
      <point x="658.5" y="1418.8"/>
      <point x="641.7" y="1435.6"/>
      <point x="611.6" y="1435.6" type="curve"/>
      <point x="281.9" y="1400.6" type="line"/>
      <point x="251.8" y="1400.6"/>
      <point x="235.0" y="1383.8"/>
      <point x="235.0" y="1353.7" type="curve" smooth="yes"/>
      <point x="235.0" y="1329.2" type="line" smooth="yes"/>
      <point x="235.0" y="1299.1"/>
      <point x="251.8" y="1282.3"/>
      <point x="281.9" y="1282.3" type="curve"/>
      <point x="473.0" y="1303.3" type="line"/>
      <point x="487.0" y="1303.3"/>
      <point x="498.9" y="1291.4"/>
      <point x="498.9" y="1277.4" type="curve" smooth="yes"/>
      <point x="498.9" y="475.9" type="line" smooth="yes"/>
      <point x="498.9" y="445.8"/>
      <point x="515.7" y="429.0"/>
    </contour>
    <contour>
      <point x="919" y="-205" type="curve" smooth="yes"/>
      <point x="1049" y="-205" type="line" smooth="yes"/>
      <point x="1071" y="-205"/>
      <point x="1093" y="-192"/>
      <point x="1102" y="-172" type="curve" smooth="yes"/>
      <point x="1983" y="1614" type="line" smooth="yes"/>
      <point x="1990" y="1629"/>
      <point x="1979" y="1647"/>
      <point x="1962" y="1647" type="curve" smooth="yes"/>
      <point x="1832" y="1647" type="line" smooth="yes"/>
      <point x="1810" y="1647"/>
      <point x="1788" y="1634"/>
      <point x="1779" y="1614" type="curve" smooth="yes"/>
      <point x="898" y="-172" type="line" smooth="yes"/>
      <point x="891" y="-187"/>
      <point x="902" y="-205"/>
    </contour>
  </outline>
</glyph>
<glyph name="AE" format="1">
  <advance width="2154"/>
  <unicode hex="00C6"/>
  <outline>
    <contour>
      <point x="150" y="0" type="curve" smooth="yes"/>
      <point x="254" y="0" type="line" smooth="yes"/>
      <point x="297" y="0"/>
      <point x="333" y="24"/>
      <point x="353" y="67" type="curve"/>
      <point x="485" y="332" type="line"/>
      <point x="494" y="338" type="line"/>
      <point x="961" y="338" type="line"/>
      <point x="961" y="67" type="line" smooth="yes"/>
      <point x="961" y="24"/>
      <point x="985" y="0"/>
      <point x="1028" y="0" type="curve" smooth="yes"/>
      <point x="1950" y="0" type="line" smooth="yes"/>
      <point x="1993" y="0"/>
      <point x="2017" y="34"/>
      <point x="2017" y="77" type="curve" smooth="yes"/>
      <point x="2017" y="84" type="line" smooth="yes"/>
      <point x="2017" y="127"/>
      <point x="1993" y="160"/>
      <point x="1950" y="160" type="curve" smooth="yes"/>
      <point x="1203" y="160" type="line"/>
      <point x="1189" y="177" type="line"/>
      <point x="1189" y="646" type="line"/>
      <point x="1209" y="663" type="line"/>
      <point x="1838" y="663" type="line" smooth="yes"/>
      <point x="1881" y="663"/>
      <point x="1905" y="697"/>
      <point x="1905" y="740" type="curve" smooth="yes"/>
      <point x="1905" y="746" type="line" smooth="yes"/>
      <point x="1905" y="789"/>
      <point x="1881" y="823"/>
      <point x="1838" y="823" type="curve" smooth="yes"/>
      <point x="1203" y="823" type="line"/>
      <point x="1189" y="849" type="line"/>
      <point x="1189" y="1253" type="line" smooth="yes"/>
      <point x="1189" y="1273"/>
      <point x="1196" y="1278"/>
      <point x="1216" y="1278" type="curve" smooth="yes"/>
      <point x="1950" y="1278" type="line" smooth="yes"/>
      <point x="1993" y="1278"/>
      <point x="2017" y="1312"/>
      <point x="2017" y="1355" type="curve" smooth="yes"/>
      <point x="2017" y="1361" type="line" smooth="yes"/>
      <point x="2017" y="1404"/>
      <point x="1993" y="1438"/>
      <point x="1950" y="1438" type="curve" smooth="yes"/>
      <point x="902" y="1438" type="line"/>
      <point x="862" y="1435"/>
      <point x="829" y="1412"/>
      <point x="809" y="1371" type="curve"/>
      <point x="115" y="67" type="line" smooth="yes"/>
      <point x="108" y="53"/>
      <point x="105" y="42"/>
      <point x="105" y="32" type="curve" smooth="yes"/>
      <point x="105" y="11"/>
      <point x="121" y="0"/>
    </contour>
    <contour>
      <point x="562" y="473" type="line" smooth="yes"/>
      <point x="557" y="473"/>
      <point x="555" y="475"/>
      <point x="555" y="477" type="curve" smooth="yes"/>
      <point x="555" y="478"/>
      <point x="556" y="479"/>
      <point x="556" y="480" type="curve" smooth="yes"/>
      <point x="958" y="1278" type="line" smooth="yes"/>
      <point x="959" y="1278"/>
      <point x="959" y="1280"/>
      <point x="960" y="1280" type="curve" smooth="yes"/>
      <point x="961" y="1279" type="line"/>
      <point x="961" y="473" type="line"/>
    </contour>
    <contour>
      <point x="1077" y="1438" type="move" name="top"/>
    </contour>
  </outline>
</glyph>
<glyph name="Eth" format="1">
  <advance width="2214"/>
  <unicode hex="00D0"/>
  <outline>
    <contour>
      <point x="415" y="160" type="line"/>
      <point x="388" y="182" type="line"/>
      <point x="388" y="674" type="line"/>
      <point x="744" y="674" type="line" smooth="yes"/>
      <point x="787" y="674"/>
      <point x="801" y="698"/>
      <point x="801" y="741" type="curve" smooth="yes"/>
      <point x="801" y="764" type="line" smooth="yes"/>
      <point x="801" y="807"/>
      <point x="787" y="831"/>
      <point x="744" y="831" type="curve" smooth="yes"/>
      <point x="388" y="831" type="line"/>
      <point x="388" y="1260" type="line"/>
      <point x="409" y="1278" type="line"/>
      <point x="1141" y="1278" type="line" smooth="yes"/>
      <point x="1544" y="1278"/>
      <point x="1851" y="1139"/>
      <point x="1851" y="721" type="curve" smooth="yes"/>
      <point x="1851" y="231"/>
      <point x="1531" y="160"/>
      <point x="1141" y="160" type="curve" smooth="yes"/>
    </contour>
    <contour>
      <point x="227" y="0" type="curve" smooth="yes"/>
      <point x="1139" y="0" type="line" smooth="yes"/>
      <point x="1600" y="0"/>
      <point x="2080" y="102"/>
      <point x="2080" y="721" type="curve" smooth="yes"/>
      <point x="2080" y="1293"/>
      <point x="1600" y="1438"/>
      <point x="1139" y="1438" type="curve" smooth="yes"/>
      <point x="227" y="1438" type="line" smooth="yes"/>
      <point x="184" y="1438"/>
      <point x="160" y="1414"/>
      <point x="160" y="1371" type="curve" smooth="yes"/>
      <point x="160" y="831" type="line"/>
      <point x="58" y="831" type="line" smooth="yes"/>
      <point x="15" y="831"/>
      <point x="1" y="807"/>
      <point x="1" y="764" type="curve" smooth="yes"/>
      <point x="1" y="741" type="line" smooth="yes"/>
      <point x="1" y="698"/>
      <point x="15" y="674"/>
      <point x="58" y="674" type="curve" smooth="yes"/>
      <point x="160" y="674" type="line"/>
      <point x="160" y="67" type="line" smooth="yes"/>
      <point x="160" y="24"/>
      <point x="184" y="0"/>
    </contour>
  </outline>
</glyph>
<glyph name="OE" format="1">
  <advance width="2640"/>
  <unicode hex="0152"/>
  <outline>
    <contour>
      <point x="1219" y="0" type="curve" smooth="yes"/>
      <point x="2436" y="0" type="line" smooth="yes"/>
      <point x="2479" y="0"/>
      <point x="2503" y="34"/>
      <point x="2503" y="77" type="curve" smooth="yes"/>
      <point x="2503" y="84" type="line" smooth="yes"/>
      <point x="2503" y="127"/>
      <point x="2479" y="160"/>
      <point x="2436" y="160" type="curve" smooth="yes"/>
      <point x="1461" y="160" type="line"/>
      <point x="1447" y="177" type="line"/>
      <point x="1447" y="646" type="line"/>
      <point x="1467" y="663" type="line"/>
      <point x="2324" y="663" type="line" smooth="yes"/>
      <point x="2367" y="663"/>
      <point x="2391" y="697"/>
      <point x="2391" y="740" type="curve" smooth="yes"/>
      <point x="2391" y="746" type="line" smooth="yes"/>
      <point x="2391" y="789"/>
      <point x="2367" y="823"/>
      <point x="2324" y="823" type="curve" smooth="yes"/>
      <point x="1461" y="823" type="line"/>
      <point x="1447" y="849" type="line"/>
      <point x="1447" y="1253" type="line" smooth="yes"/>
      <point x="1447" y="1273"/>
      <point x="1454" y="1278"/>
      <point x="1474" y="1278" type="curve" smooth="yes"/>
      <point x="2436" y="1278" type="line" smooth="yes"/>
      <point x="2479" y="1278"/>
      <point x="2503" y="1312"/>
      <point x="2503" y="1355" type="curve" smooth="yes"/>
      <point x="2503" y="1361" type="line" smooth="yes"/>
      <point x="2503" y="1404"/>
      <point x="2478" y="1438"/>
      <point x="2436" y="1438" type="curve" smooth="yes"/>
      <point x="1219" y="1438" type="line" smooth="yes"/>
      <point x="701" y="1438"/>
      <point x="131" y="1296"/>
      <point x="131" y="724" type="curve" smooth="yes"/>
      <point x="131" y="105"/>
      <point x="728" y="0"/>
    </contour>
    <contour>
      <point x="1155" y="168" type="line" smooth="yes"/>
      <point x="771" y="168"/>
      <point x="360" y="260"/>
      <point x="360" y="724" type="curve" smooth="yes"/>
      <point x="360" y="1125"/>
      <point x="694" y="1270"/>
      <point x="1157" y="1270" type="curve" smooth="yes"/>
      <point x="1198" y="1270" type="line"/>
      <point x="1219" y="1254" type="line"/>
      <point x="1219" y="186" type="line"/>
      <point x="1207" y="168" type="line"/>
    </contour>
    <contour>
      <point x="1320" y="1438" type="move" name="top"/>
    </contour>
  </outline>
</glyph>
<glyph name="oe" format="1">
  <advance width="2743"/>
  <unicode hex="0153"/>
  <outline>
    <contour>
      <point x="2001" y="-42" type="curve" smooth="yes"/>
      <point x="2182" y="-42"/>
      <point x="2403" y="8"/>
      <point x="2529" y="69" type="curve" smooth="yes"/>
      <point x="2573" y="90"/>
      <point x="2567" y="113"/>
      <point x="2559" y="140" type="curve" smooth="yes"/>
      <point x="2551" y="168"/>
      <point x="2543" y="188"/>
      <point x="2540" y="195" type="curve"/>
      <point x="2533" y="215"/>
      <point x="2510" y="222"/>
      <point x="2469" y="203" type="curve" smooth="yes"/>
      <point x="2402" y="172"/>
      <point x="2260" y="110"/>
      <point x="2016" y="110" type="curve" smooth="yes"/>
      <point x="1599" y="110"/>
      <point x="1520" y="314"/>
      <point x="1519" y="440" type="curve" smooth="yes"/>
      <point x="1519" y="448"/>
      <point x="1525" y="450"/>
      <point x="1536" y="450" type="curve" smooth="yes"/>
      <point x="2484" y="450" type="line" smooth="yes"/>
      <point x="2593" y="450"/>
      <point x="2608" y="521"/>
      <point x="2609" y="556" type="curve" smooth="yes"/>
      <point x="2609" y="607" type="line"/>
      <point x="2572" y="806"/>
      <point x="2416" y="1052"/>
      <point x="1987" y="1052" type="curve" smooth="yes"/>
      <point x="1760" y="1052"/>
      <point x="1528" y="985"/>
      <point x="1407" y="808" type="curve"/>
      <point x="1283" y="985"/>
      <point x="1047" y="1052"/>
      <point x="823" y="1052" type="curve" smooth="yes"/>
      <point x="494" y="1052"/>
      <point x="132" y="912"/>
      <point x="132" y="504" type="curve" smooth="yes"/>
      <point x="132" y="106"/>
      <point x="524" y="-41"/>
      <point x="823" y="-41" type="curve" smooth="yes"/>
      <point x="1026" y="-41"/>
      <point x="1268" y="29"/>
      <point x="1399" y="203" type="curve"/>
      <point x="1517" y="20"/>
      <point x="1752" y="-42"/>
    </contour>
    <contour>
      <point x="1531" y="590" type="line" smooth="yes"/>
      <point x="1524" y="590"/>
      <point x="1523" y="593"/>
      <point x="1523" y="597" type="curve"/>
      <point x="1558" y="811"/>
      <point x="1774" y="900"/>
      <point x="1986" y="900" type="curve" smooth="yes"/>
      <point x="2308" y="900"/>
      <point x="2398" y="738"/>
      <point x="2423" y="592" type="curve"/>
      <point x="2424" y="590" type="line"/>
    </contour>
    <contour>
      <point x="822" y="111" type="curve" smooth="yes"/>
      <point x="564" y="111"/>
      <point x="360" y="246"/>
      <point x="361" y="504" type="curve" smooth="yes"/>
      <point x="360" y="786"/>
      <point x="580" y="900"/>
      <point x="822" y="900" type="curve" smooth="yes"/>
      <point x="1060" y="900"/>
      <point x="1296" y="788"/>
      <point x="1296" y="504" type="curve" smooth="yes"/>
      <point x="1296" y="243"/>
      <point x="1076" y="111"/>
    </contour>
    <contour>
      <point x="1629.0" y="1006.0" type="move" name="top"/>
    </contour>
  </outline>
</glyph>
<glyph name="breve" format="1">
  <advance width="1218"/>
  <unicode hex="02D8"/>
  <outline>
    <contour>
      <point x="640" y="1186.4" type="curve" smooth="yes"/>
      <point x="805" y="1186.4"/>
      <point x="960" y="1259.4"/>
      <point x="960" y="1499.4" type="curve"/>
      <point x="768" y="1499.4" type="line"/>
      <point x="768" y="1382.4"/>
      <point x="720" y="1332.4"/>
      <point x="640" y="1332.4" type="curve" smooth="yes"/>
      <point x="559" y="1332.4"/>
      <point x="512" y="1389.4"/>
      <point x="512" y="1499.4" type="curve"/>
      <point x="320" y="1499.4" type="line"/>
      <point x="320" y="1259.4"/>
      <point x="474" y="1186.4"/>
    </contour>
    <contour>
      <point x="640" y="1006" type="move" name="_top"/>
    </contour>
  </outline>
</glyph>
<glyph name="ring" format="1">
  <advance width="1717"/>
  <unicode hex="02DA"/>
  <outline>
    <contour>
      <point x="829" y="1505.4" type="curve" smooth="yes"/>
      <point x="747" y="1505.4"/>
      <point x="680" y="1551.4"/>
      <point x="682" y="1642.4" type="curve"/>
      <point x="680" y="1741.4"/>
      <point x="752" y="1779.4"/>
      <point x="829" y="1779.4" type="curve" smooth="yes"/>
      <point x="903" y="1779.4"/>
      <point x="975" y="1741.4"/>
      <point x="975" y="1642.4" type="curve" smooth="yes"/>
      <point x="975" y="1550.4"/>
      <point x="908" y="1505.4"/>
    </contour>
    <contour>
      <point x="829" y="1418.4" type="curve" smooth="yes"/>
      <point x="937" y="1418.4"/>
      <point x="1083" y="1479.4"/>
      <point x="1083" y="1642.4" type="curve" smooth="yes"/>
      <point x="1083" y="1810.4"/>
      <point x="948" y="1867.4"/>
      <point x="829" y="1867.4" type="curve" smooth="yes"/>
      <point x="708" y="1867.4"/>
      <point x="573" y="1810.4"/>
      <point x="573" y="1642.4" type="curve" smooth="yes"/>
      <point x="573" y="1478.4"/>
      <point x="719" y="1418.4"/>
    </contour>
    <contour>
      <point x="828" y="1006" type="move" name="_top"/>
    </contour>
  </outline>
</glyph>
<glyph name="tilde" format="1">
  <advance width="1616"/>
  <unicode hex="02DC"/>
  <outline>
    <contour>
      <point x="626.456" y="1527.5" type="curve" smooth="yes"/>
      <point x="756.761" y="1527.5"/>
      <point x="898.054" y="1617.28"/>
      <point x="1029.04" y="1617.28" type="curve" smooth="yes"/>
      <point x="1087.64" y="1617.28"/>
      <point x="1144.13" y="1606.59"/>
      <point x="1196.5" y="1575.4" type="curve" smooth="yes"/>
      <point x="1205.75" y="1569.89"/>
      <point x="1214.5" y="1569.4"/>
      <point x="1220.5" y="1569.4" type="curve" smooth="yes"/>
      <point x="1244.5" y="1569.4"/>
      <point x="1254.5" y="1602.4"/>
      <point x="1261.5" y="1617.4" type="curve"/>
      <point x="1261.5" y="1617.4"/>
      <point x="1280.47" y="1656.1"/>
      <point x="1282.5" y="1661.4" type="curve" smooth="yes"/>
      <point x="1284.5" y="1669.4"/>
      <point x="1286.5" y="1676.4"/>
      <point x="1286.5" y="1682.4" type="curve" smooth="yes"/>
      <point x="1286.5" y="1703.4"/>
      <point x="1272.85" y="1714.08"/>
      <point x="1251.5" y="1725.4" type="curve" smooth="yes"/>
      <point x="1169.6" y="1768.84"/>
      <point x="1096.07" y="1783.26"/>
      <point x="1027.04" y="1783.26" type="curve" smooth="yes"/>
      <point x="887.327" y="1783.26"/>
      <point x="765.625" y="1697.14"/>
      <point x="631.525" y="1697.14" type="curve" smooth="yes"/>
      <point x="585.53" y="1697.14"/>
      <point x="533.717" y="1710.33"/>
      <point x="464.5" y="1748.4" type="curve" smooth="yes"/>
      <point x="454.5" y="1753.4"/>
      <point x="445.5" y="1756.4"/>
      <point x="437.5" y="1756.4" type="curve" smooth="yes"/>
      <point x="421.5" y="1756.4"/>
      <point x="410.5" y="1745.4"/>
      <point x="401.5" y="1724.4" type="curve" smooth="yes"/>
      <point x="373.5" y="1666.4" type="line" smooth="yes"/>
      <point x="370.583" y="1660.36"/>
      <point x="369.5" y="1654.4"/>
      <point x="369.5" y="1649.4" type="curve" smooth="yes"/>
      <point x="369.5" y="1631.4"/>
      <point x="382.5" y="1614.4"/>
      <point x="403.5" y="1602.4" type="curve"/>
      <point x="492.215" y="1546.02"/>
      <point x="562.145" y="1527.5"/>
    </contour>
    <contour>
      <point x="828" y="1006" type="move" name="_top"/>
    </contour>
  </outline>
</glyph>
<glyph name="uni030F" format="1">
  <advance width="1745"/>
  <unicode hex="030F"/>
  <outline>
    <contour>
      <point x="700" y="1442" type="curve" smooth="yes"/>
      <point x="720" y="1442" type="line" smooth="yes"/>
      <point x="749" y="1442"/>
      <point x="762" y="1447"/>
      <point x="762" y="1474" type="curve" smooth="yes"/>
      <point x="762" y="1483"/>
      <point x="761" y="1495"/>
      <point x="758" y="1509" type="curve" smooth="yes"/>
      <point x="696" y="1819" type="line" smooth="yes"/>
      <point x="688" y="1862"/>
      <point x="668" y="1874"/>
      <point x="624" y="1874" type="curve" smooth="yes"/>
      <point x="458" y="1874" type="line" smooth="yes"/>
      <point x="438" y="1874"/>
      <point x="430" y="1862"/>
      <point x="430" y="1846" type="curve" smooth="yes"/>
      <point x="430" y="1835"/>
      <point x="435" y="1821"/>
      <point x="442" y="1809" type="curve" smooth="yes"/>
      <point x="644" y="1481" type="line" smooth="yes"/>
      <point x="659" y="1457"/>
      <point x="662" y="1442"/>
    </contour>
    <contour>
      <point x="1064" y="1442" type="curve" smooth="yes"/>
      <point x="1084" y="1442" type="line" smooth="yes"/>
      <point x="1113" y="1442"/>
      <point x="1126" y="1447"/>
      <point x="1126" y="1474" type="curve" smooth="yes"/>
      <point x="1126" y="1483"/>
      <point x="1125" y="1495"/>
      <point x="1122" y="1509" type="curve" smooth="yes"/>
      <point x="1058" y="1819" type="line" smooth="yes"/>
      <point x="1050" y="1862"/>
      <point x="1032" y="1874"/>
      <point x="988" y="1874" type="curve" smooth="yes"/>
      <point x="822" y="1874" type="line" smooth="yes"/>
      <point x="802" y="1874"/>
      <point x="794" y="1862"/>
      <point x="794" y="1846" type="curve" smooth="yes"/>
      <point x="794" y="1835"/>
      <point x="799" y="1821"/>
      <point x="806" y="1809" type="curve" smooth="yes"/>
      <point x="1008" y="1481" type="line" smooth="yes"/>
      <point x="1023" y="1457"/>
      <point x="1026" y="1442"/>
    </contour>
    <contour>
      <point x="778" y="1006" type="move" name="_top"/>
    </contour>
  </outline>
</glyph>
<glyph name="uni0326" format="1">
  <advance width="1745"/>
  <unicode hex="0326"/>
  <outline>
    <contour>
      <point x="683.5" y="-585" type="curve" smooth="yes"/>
      <point x="703.5" y="-585" type="line" smooth="yes"/>
      <point x="741.5" y="-585"/>
      <point x="744.5" y="-570"/>
      <point x="759.5" y="-546" type="curve" smooth="yes"/>
      <point x="961.5" y="-218" type="line" smooth="yes"/>
      <point x="968.5" y="-206"/>
      <point x="973.5" y="-192"/>
      <point x="973.5" y="-181" type="curve" smooth="yes"/>
      <point x="973.5" y="-165"/>
      <point x="965.5" y="-153"/>
      <point x="945.5" y="-153" type="curve" smooth="yes"/>
      <point x="779.5" y="-153" type="line" smooth="yes"/>
      <point x="735.5" y="-153"/>
      <point x="716.5" y="-165"/>
      <point x="708.5" y="-208" type="curve" smooth="yes"/>
      <point x="645.5" y="-518" type="line" smooth="yes"/>
      <point x="642.5" y="-532"/>
      <point x="641.5" y="-544"/>
      <point x="641.5" y="-553" type="curve" smooth="yes"/>
      <point x="641.5" y="-580"/>
      <point x="654.5" y="-585"/>
    </contour>
    <contour>
      <point x="807.5" y="0" type="move" name="_bottom"/>
    </contour>
  </outline>
</glyph>
<glyph name="endash" format="1">
  <advance width="1024"/>
  <unicode hex="2013"/>
  <outline>
    <contour>
      <point x="180.0" y="487.0" type="curve" smooth="yes"/>
      <point x="846" y="487" type="line" smooth="yes"/>
      <point x="889" y="487"/>
      <point x="902" y="501"/>
      <point x="902" y="544" type="curve" smooth="yes"/>
      <point x="902" y="596" type="line" smooth="yes"/>
      <point x="902" y="639"/>
      <point x="889" y="653"/>
      <point x="846" y="653" type="curve" smooth="yes"/>
      <point x="180.0" y="653.0" type="line" smooth="yes"/>
      <point x="137.0" y="653.0"/>
      <point x="121.0" y="639.0"/>
      <point x="121.0" y="596.0" type="curve" smooth="yes"/>
      <point x="121.0" y="544.0" type="line" smooth="yes"/>
      <point x="121.0" y="501.0"/>
      <point x="137.0" y="487.0"/>
    </contour>
  </outline>
</glyph>
<glyph name="emdash" format="1">
  <advance width="2048"/>
  <unicode hex="2014"/>
  <outline>
    <contour>
      <point x="180.0" y="487.0" type="curve" smooth="yes"/>
      <point x="1871" y="487" type="line" smooth="yes"/>
      <point x="1914" y="487"/>
      <point x="1927" y="501"/>
      <point x="1927" y="544" type="curve" smooth="yes"/>
      <point x="1927" y="596" type="line" smooth="yes"/>
      <point x="1927" y="639"/>
      <point x="1914" y="653"/>
      <point x="1871" y="653" type="curve" smooth="yes"/>
      <point x="180.0" y="653.0" type="line" smooth="yes"/>
      <point x="137.0" y="653.0"/>
      <point x="121.0" y="639.0"/>
      <point x="121.0" y="596.0" type="curve" smooth="yes"/>
      <point x="121.0" y="544.0" type="line" smooth="yes"/>
      <point x="121.0" y="501.0"/>
      <point x="137.0" y="487.0"/>
    </contour>
  </outline>
</glyph>
<glyph name="quotedblright" format="1">
  <advance width="1085"/>
  <unicode hex="201D"/>
  <outline>
    <contour>
      <point x="216" y="917" type="curve" smooth="yes"/>
      <point x="354" y="940"/>
      <point x="485" y="1076"/>
      <point x="485" y="1313" type="curve" smooth="yes"/>
      <point x="485" y="1458" type="line" smooth="yes"/>
      <point x="485" y="1501"/>
      <point x="451" y="1535"/>
      <point x="408" y="1535" type="curve" smooth="yes"/>
      <point x="210" y="1535" type="line" smooth="yes"/>
      <point x="167" y="1535"/>
      <point x="150" y="1514"/>
      <point x="150" y="1471" type="curve" smooth="yes"/>
      <point x="150" y="1268" type="line" smooth="yes"/>
      <point x="150" y="1230"/>
      <point x="172" y="1218"/>
      <point x="210" y="1218" type="curve" smooth="yes"/>
      <point x="295" y="1218" type="line" smooth="yes"/>
      <point x="310" y="1218"/>
      <point x="312" y="1207"/>
      <point x="312" y="1191" type="curve" smooth="yes"/>
      <point x="312" y="1167"/>
      <point x="280" y="1090"/>
      <point x="211" y="1047" type="curve" smooth="yes"/>
      <point x="168" y="1020"/>
      <point x="150" y="1026"/>
      <point x="150" y="972" type="curve" smooth="yes"/>
      <point x="150" y="962" type="line" smooth="yes"/>
      <point x="150" y="926"/>
      <point x="181" y="911"/>
    </contour>
    <contour>
      <point x="667" y="917" type="curve" smooth="yes"/>
      <point x="805" y="940"/>
      <point x="936" y="1076"/>
      <point x="936" y="1313" type="curve" smooth="yes"/>
      <point x="936" y="1458" type="line" smooth="yes"/>
      <point x="936" y="1501"/>
      <point x="902" y="1535"/>
      <point x="859" y="1535" type="curve" smooth="yes"/>
      <point x="661" y="1535" type="line" smooth="yes"/>
      <point x="618" y="1535"/>
      <point x="601" y="1514"/>
      <point x="601" y="1471" type="curve" smooth="yes"/>
      <point x="601" y="1268" type="line" smooth="yes"/>
      <point x="601" y="1230"/>
      <point x="623" y="1218"/>
      <point x="661" y="1218" type="curve" smooth="yes"/>
      <point x="746" y="1218" type="line" smooth="yes"/>
      <point x="761" y="1218"/>
      <point x="763" y="1207"/>
      <point x="763" y="1191" type="curve" smooth="yes"/>
      <point x="763" y="1167"/>
      <point x="731" y="1090"/>
      <point x="662" y="1047" type="curve" smooth="yes"/>
      <point x="619" y="1020"/>
      <point x="601" y="1026"/>
      <point x="601" y="972" type="curve" smooth="yes"/>
      <point x="601" y="962" type="line" smooth="yes"/>
      <point x="601" y="926"/>
      <point x="632" y="911"/>
    </contour>
  </outline>
</glyph>
<glyph name="guilsinglleft" format="1">
  <advance width="709"/>
  <unicode hex="2039"/>
  <outline>
    <contour>
      <point x="597" y="245" type="curve" smooth="yes"/>
      <point x="618" y="245"/>
      <point x="638" y="262"/>
      <point x="638" y="286" type="curve" smooth="yes"/>
      <point x="638" y="376" type="line" smooth="yes"/>
      <point x="638" y="418"/>
      <point x="611" y="436"/>
      <point x="576" y="457" type="curve"/>
      <point x="257" y="690" type="line" smooth="yes"/>
      <point x="251" y="694"/>
      <point x="248" y="699"/>
      <point x="248" y="704" type="curve" smooth="yes"/>
      <point x="248" y="709"/>
      <point x="251" y="714"/>
      <point x="257" y="718" type="curve" smooth="yes"/>
      <point x="576" y="949" type="line"/>
      <point x="610" y="971"/>
      <point x="638" y="988"/>
      <point x="638" y="1029" type="curve" smooth="yes"/>
      <point x="638" y="1104" type="line" smooth="yes"/>
      <point x="638" y="1128"/>
      <point x="618" y="1145"/>
      <point x="596" y="1145" type="curve" smooth="yes"/>
      <point x="589" y="1145"/>
      <point x="583" y="1143"/>
      <point x="577" y="1141" type="curve"/>
      <point x="129" y="816" type="line" smooth="yes"/>
      <point x="95" y="791"/>
      <point x="68" y="774"/>
      <point x="68" y="732" type="curve" smooth="yes"/>
      <point x="68" y="673" type="line" smooth="yes"/>
      <point x="68" y="631"/>
      <point x="95" y="614"/>
      <point x="128" y="589" type="curve" smooth="yes"/>
      <point x="577" y="250" type="line"/>
      <point x="584" y="248"/>
      <point x="591" y="245"/>
    </contour>
  </outline>
</glyph>
<glyph name="Euro" format="1">
  <advance width="2193"/>
  <unicode hex="20AC"/>
  <outline>
    <contour>
      <point x="1131" y="-41" type="curve" smooth="yes"/>
      <point x="1495" y="-41"/>
      <point x="1882" y="48"/>
      <point x="2052" y="392" type="curve" smooth="yes"/>
      <point x="2054" y="396"/>
      <point x="2055" y="401"/>
      <point x="2055" y="407" type="curve" smooth="yes"/>
      <point x="2055" y="418"/>
      <point x="2050" y="430"/>
      <point x="2036" y="431" type="curve"/>
      <point x="1871" y="458"/>
      <point x="1868" y="458"/>
      <point x="1865" y="458" type="curve" smooth="yes"/>
      <point x="1834" y="458"/>
      <point x="1825" y="433"/>
      <point x="1817" y="420" type="curve" smooth="yes"/>
      <point x="1677" y="189"/>
      <point x="1422" y="127"/>
      <point x="1131" y="127" type="curve" smooth="yes"/>
      <point x="744" y="127"/>
      <point x="362" y="231"/>
      <point x="362" y="721" type="curve" smooth="yes"/>
      <point x="362" y="1139"/>
      <point x="731" y="1307"/>
      <point x="1131" y="1307" type="curve" smooth="yes"/>
      <point x="1429" y="1307"/>
      <point x="1672" y="1210"/>
      <point x="1816" y="995" type="curve" smooth="yes"/>
      <point x="1827" y="978"/>
      <point x="1847" y="972"/>
      <point x="1862" y="972" type="curve" smooth="yes"/>
      <point x="1863" y="972"/>
      <point x="1865" y="972"/>
      <point x="2036" y="996" type="curve" smooth="yes"/>
      <point x="2051" y="999"/>
      <point x="2055" y="1007"/>
      <point x="2055" y="1014" type="curve" smooth="yes"/>
      <point x="2055" y="1021"/>
      <point x="2052" y="1028"/>
      <point x="2050" y="1033" type="curve" smooth="yes"/>
      <point x="1878" y="1362"/>
      <point x="1495" y="1475"/>
      <point x="1131" y="1475" type="curve" smooth="yes"/>
      <point x="673" y="1475"/>
      <point x="133" y="1293"/>
      <point x="133" y="721" type="curve" smooth="yes"/>
      <point x="133" y="102"/>
      <point x="673" y="-41"/>
    </contour>
    <contour>
      <point x="57" y="504" type="curve" smooth="yes"/>
      <point x="845" y="504" type="line" smooth="yes"/>
      <point x="888" y="504"/>
      <point x="902" y="518"/>
      <point x="902" y="561" type="curve" smooth="yes"/>
      <point x="902" y="605" type="line" smooth="yes"/>
      <point x="902" y="648"/>
      <point x="888" y="662"/>
      <point x="845" y="662" type="curve" smooth="yes"/>
      <point x="57" y="662" type="line" smooth="yes"/>
      <point x="14" y="662"/>
      <point x="0" y="648"/>
      <point x="0" y="605" type="curve" smooth="yes"/>
      <point x="0" y="561" type="line" smooth="yes"/>
      <point x="0" y="518"/>
      <point x="14" y="504"/>
    </contour>
    <contour>
      <point x="57" y="780" type="curve" smooth="yes"/>
      <point x="845" y="780" type="line" smooth="yes"/>
      <point x="888" y="780"/>
      <point x="902" y="794"/>
      <point x="902" y="837" type="curve" smooth="yes"/>
      <point x="902" y="881" type="line" smooth="yes"/>
      <point x="902" y="924"/>
      <point x="888" y="938"/>
      <point x="845" y="938" type="curve" smooth="yes"/>
      <point x="57" y="938" type="line" smooth="yes"/>
      <point x="14" y="938"/>
      <point x="0" y="924"/>
      <point x="0" y="881" type="curve" smooth="yes"/>
      <point x="0" y="837" type="line" smooth="yes"/>
      <point x="0" y="794"/>
      <point x="14" y="780"/>
    </contour>
  </outline>
</glyph>
<glyph name="uniFB01" format="1">
  <advance width="1739"/>
  <unicode hex="FB01"/>
  <outline>
    <contour>
      <point x="438" y="0" type="curve" smooth="yes"/>
      <point x="512" y="0" type="line" smooth="yes"/>
      <point x="555" y="0"/>
      <point x="589" y="34"/>
      <point x="589" y="77" type="curve" smooth="yes"/>
      <point x="589" y="821" type="line" smooth="yes"/>
      <point x="589" y="841"/>
      <point x="592" y="858"/>
      <point x="612" y="858" type="curve" smooth="yes"/>
      <point x="1352" y="858" type="line"/>
      <point x="1352" y="67" type="line" smooth="yes"/>
      <point x="1352" y="24"/>
      <point x="1376" y="0"/>
      <point x="1419" y="0" type="curve" smooth="yes"/>
      <point x="1513" y="0" type="line" smooth="yes"/>
      <point x="1556" y="0"/>
      <point x="1580" y="24"/>
      <point x="1580" y="67" type="curve" smooth="yes"/>
      <point x="1580" y="939" type="line" smooth="yes"/>
      <point x="1580" y="982"/>
      <point x="1556" y="1006"/>
      <point x="1513" y="1006" type="curve" smooth="yes"/>
      <point x="601" y="1006" type="line" smooth="yes"/>
      <point x="591" y="1006"/>
      <point x="589" y="1014"/>
      <point x="589" y="1017" type="curve" smooth="yes"/>
      <point x="589" y="1060" type="line" smooth="yes"/>
      <point x="589" y="1199"/>
      <point x="628" y="1323"/>
      <point x="849" y="1323" type="curve" smooth="yes"/>
      <point x="915" y="1323"/>
      <point x="1051" y="1290"/>
      <point x="1056" y="1290" type="curve" smooth="yes"/>
      <point x="1090" y="1290"/>
      <point x="1097" y="1297"/>
      <point x="1097" y="1334" type="curve" smooth="yes"/>
      <point x="1097" y="1388" type="line" smooth="yes"/>
      <point x="1097" y="1416"/>
      <point x="1075" y="1431"/>
      <point x="1047" y="1438" type="curve"/>
      <point x="1029" y="1441"/>
      <point x="907" y="1475"/>
      <point x="793" y="1475" type="curve" smooth="yes"/>
      <point x="578" y="1475"/>
      <point x="362" y="1381"/>
      <point x="362" y="1041" type="curve" smooth="yes"/>
      <point x="362" y="1019"/>
      <point x="361" y="1006"/>
      <point x="339" y="1006" type="curve" smooth="yes"/>
      <point x="189" y="1006" type="line" smooth="yes"/>
      <point x="146" y="1006"/>
      <point x="122" y="988"/>
      <point x="122" y="945" type="curve" smooth="yes"/>
      <point x="122" y="910" type="line" smooth="yes"/>
      <point x="122" y="867"/>
      <point x="146" y="858"/>
      <point x="189" y="858" type="curve" smooth="yes"/>
      <point x="341" y="858" type="line" smooth="yes"/>
      <point x="361" y="858"/>
      <point x="361" y="841"/>
      <point x="361" y="821" type="curve" smooth="yes"/>
      <point x="361" y="77" type="line" smooth="yes"/>
      <point x="361" y="34"/>
      <point x="395" y="0"/>
    </contour>
    <contour>
      <point x="1419" y="1179" type="curve" smooth="yes"/>
      <point x="1513" y="1179" type="line" smooth="yes"/>
      <point x="1556" y="1179"/>
      <point x="1580" y="1203"/>
      <point x="1580" y="1246" type="curve" smooth="yes"/>
      <point x="1580" y="1344" type="line" smooth="yes"/>
      <point x="1580" y="1387"/>
      <point x="1556" y="1411"/>
      <point x="1513" y="1411" type="curve" smooth="yes"/>
      <point x="1419" y="1411" type="line" smooth="yes"/>
      <point x="1376" y="1411"/>
      <point x="1352" y="1387"/>
      <point x="1352" y="1344" type="curve" smooth="yes"/>
      <point x="1352" y="1246" type="line" smooth="yes"/>
      <point x="1352" y="1203"/>
      <point x="1376" y="1179"/>
    </contour>
  </outline>
</glyph>
<glyph name="uniFB00" format="1">
  <advance width="2070"/>
  <outline>
    <contour>
      <point x="438" y="0" type="curve" smooth="yes"/>
      <point x="512" y="0" type="line" smooth="yes"/>
      <point x="555" y="0"/>
      <point x="589" y="34"/>
      <point x="589" y="77" type="curve" smooth="yes"/>
      <point x="589" y="821" type="line" smooth="yes"/>
      <point x="589" y="841"/>
      <point x="592" y="858"/>
      <point x="612" y="858" type="curve" smooth="yes"/>
      <point x="1182" y="858" type="line" smooth="yes"/>
      <point x="1202" y="858"/>
      <point x="1202" y="841"/>
      <point x="1202" y="821" type="curve" smooth="yes"/>
      <point x="1202" y="77" type="line" smooth="yes"/>
      <point x="1202" y="34"/>
      <point x="1236" y="0"/>
      <point x="1279" y="0" type="curve" smooth="yes"/>
      <point x="1353" y="0" type="line" smooth="yes"/>
      <point x="1396" y="0"/>
      <point x="1430" y="34"/>
      <point x="1430" y="77" type="curve" smooth="yes"/>
      <point x="1430" y="821" type="line" smooth="yes"/>
      <point x="1430" y="841"/>
      <point x="1433" y="858"/>
      <point x="1453" y="858" type="curve" smooth="yes"/>
      <point x="1847" y="858" type="line" smooth="yes"/>
      <point x="1890" y="858"/>
      <point x="1914" y="867"/>
      <point x="1914" y="910" type="curve" smooth="yes"/>
      <point x="1914" y="951" type="line" smooth="yes"/>
      <point x="1914" y="994"/>
      <point x="1890" y="1006"/>
      <point x="1847" y="1006" type="curve" smooth="yes"/>
      <point x="1442" y="1006" type="line" smooth="yes"/>
      <point x="1432" y="1006"/>
      <point x="1430" y="1014"/>
      <point x="1430" y="1017" type="curve" smooth="yes"/>
      <point x="1430" y="1060" type="line" smooth="yes"/>
      <point x="1430" y="1199"/>
      <point x="1469" y="1323"/>
      <point x="1690" y="1323" type="curve" smooth="yes"/>
      <point x="1756" y="1323"/>
      <point x="1892" y="1290"/>
      <point x="1897" y="1290" type="curve" smooth="yes"/>
      <point x="1931" y="1290"/>
      <point x="1938" y="1297"/>
      <point x="1938" y="1334" type="curve" smooth="yes"/>
      <point x="1938" y="1388" type="line" smooth="yes"/>
      <point x="1938" y="1416"/>
      <point x="1916" y="1431"/>
      <point x="1888" y="1438" type="curve"/>
      <point x="1870" y="1441"/>
      <point x="1748" y="1475"/>
      <point x="1634" y="1475" type="curve" smooth="yes"/>
      <point x="1419" y="1475"/>
      <point x="1203" y="1381"/>
      <point x="1203" y="1041" type="curve" smooth="yes"/>
      <point x="1203" y="1019"/>
      <point x="1202" y="1006"/>
      <point x="1180" y="1006" type="curve" smooth="yes"/>
      <point x="601" y="1006" type="line" smooth="yes"/>
      <point x="591" y="1006"/>
      <point x="589" y="1014"/>
      <point x="589" y="1017" type="curve" smooth="yes"/>
      <point x="589" y="1060" type="line" smooth="yes"/>
      <point x="589" y="1199"/>
      <point x="628" y="1323"/>
      <point x="849" y="1323" type="curve" smooth="yes"/>
      <point x="915" y="1323"/>
      <point x="1051" y="1290"/>
      <point x="1056" y="1290" type="curve" smooth="yes"/>
      <point x="1090" y="1290"/>
      <point x="1097" y="1297"/>
      <point x="1097" y="1334" type="curve" smooth="yes"/>
      <point x="1097" y="1388" type="line" smooth="yes"/>
      <point x="1097" y="1416"/>
      <point x="1075" y="1431"/>
      <point x="1047" y="1438" type="curve"/>
      <point x="1029" y="1441"/>
      <point x="907" y="1475"/>
      <point x="793" y="1475" type="curve" smooth="yes"/>
      <point x="578" y="1475"/>
      <point x="362" y="1381"/>
      <point x="362" y="1041" type="curve" smooth="yes"/>
      <point x="362" y="1019"/>
      <point x="361" y="1006"/>
      <point x="339" y="1006" type="curve" smooth="yes"/>
      <point x="189" y="1006" type="line" smooth="yes"/>
      <point x="146" y="1006"/>
      <point x="122" y="988"/>
      <point x="122" y="945" type="curve" smooth="yes"/>
      <point x="122" y="910" type="line" smooth="yes"/>
      <point x="122" y="867"/>
      <point x="146" y="858"/>
      <point x="189" y="858" type="curve" smooth="yes"/>
      <point x="341" y="858" type="line" smooth="yes"/>
      <point x="361" y="858"/>
      <point x="361" y="841"/>
      <point x="361" y="821" type="curve" smooth="yes"/>
      <point x="361" y="77" type="line" smooth="yes"/>
      <point x="361" y="34"/>
      <point x="395" y="0"/>
    </contour>
  </outline>
</glyph>
